<?xml version="1.0" encoding="UTF-8"?>
<svg xmlns="http://www.w3.org/2000/svg" xmlns:xlink="http://www.w3.org/1999/xlink" width="2417pt" height="570pt" viewBox="0 0 2417 570" version="1.1">
<g id="surface1">
<path style=" stroke:none;fill-rule:nonzero;fill:rgb(99.609375%,0%,0%);fill-opacity:1;" d="M 0 0 L 2417 0 L 2417 570 L 0 570 L 0 0 M 1264.828125 126.839844 C 1256.050781 134.390625 1248.261719 143.019531 1240.789063 151.851563 C 1233.371094 160.519531 1227.640625 170.519531 1223.199219 181 C 1221.039063 186.171875 1219.25 191.488281 1217.828125 196.910156 C 1217.511719 198.238281 1217.191406 199.570313 1216.871094 200.890625 C 1213.171875 218.410156 1213.589844 237.121094 1220.140625 253.929688 C 1223.519531 263.308594 1229.210938 271.699219 1236.121094 278.839844 C 1241.671875 283.910156 1247.890625 288.269531 1254.808594 291.269531 C 1258.878906 292.261719 1262.359375 294.621094 1266.140625 296.320313 C 1258.089844 295.691406 1250.210938 293.71875 1242.921875 290.230469 C 1222.648438 280.109375 1208.960938 259.640625 1204.121094 237.871094 L 1203.761719 237.300781 C 1200.160156 221.078125 1200.441406 204.109375 1203.828125 187.878906 L 1204.199219 187.289063 C 1205.5 180.261719 1207.839844 173.441406 1210.769531 166.921875 C 1218 150.539063 1227.449219 135.261719 1237.910156 120.769531 C 1238.359375 120.429688 1239.25 119.761719 1239.691406 119.429688 C 1232.121094 120.191406 1225.128906 123.589844 1218.050781 126.171875 C 1215.050781 127.480469 1212.070313 128.808594 1209.128906 130.230469 C 1207.371094 131.121094 1205.648438 132.011719 1203.898438 132.878906 C 1200.660156 141.46875 1197.46875 150.078125 1194.871094 158.890625 C 1192.480469 167.46875 1190.519531 176.148438 1188.851563 184.890625 C 1186.21875 199.890625 1186.878906 215.328125 1189.769531 230.238281 L 1190.140625 230.839844 C 1191.429688 237.828125 1194 244.511719 1196.710938 251.058594 C 1198.140625 254.039063 1199.601563 257.019531 1201.238281 259.898438 C 1208.359375 272.460938 1218.519531 283.5 1231.011719 290.851563 C 1236.570313 294.160156 1242.640625 296.570313 1248.921875 298.160156 C 1257.101563 300.101563 1265.730469 300.300781 1274.011719 298.859375 C 1276.738281 298.71875 1279.5 298.738281 1282.25 298.878906 C 1280.980469 299.140625 1279.699219 299.390625 1278.460938 299.640625 C 1278.441406 299.828125 1278.398438 300.210938 1278.378906 300.410156 C 1261.53125 306.898438 1242.210938 305.71875 1226.050781 297.789063 C 1212.808594 291.558594 1201.421875 281.78125 1192.628906 270.128906 C 1189.949219 266.53125 1187.371094 262.859375 1185.21875 258.921875 C 1182.949219 255.058594 1180.878906 251.078125 1179.171875 246.949219 C 1172.730469 232.519531 1169.691406 216.738281 1169.378906 200.988281 C 1169.121094 188.28125 1168.851563 175.480469 1170.578125 162.859375 C 1170.808594 160.738281 1170.621094 158.601563 1170.511719 156.480469 C 1169.621094 157.941406 1168.589844 159.28125 1167.421875 160.511719 C 1159.300781 168.5 1152.320313 177.601563 1146.160156 187.171875 C 1142.230469 191.761719 1145.75 197.878906 1145.820313 203.128906 L 1146.210938 203.710938 C 1147.191406 210.601563 1149.121094 217.320313 1150.800781 224.058594 C 1152.898438 231.128906 1155.148438 238.160156 1157.75 245.058594 C 1158.429688 246.730469 1159.109375 248.398438 1159.789063 250.078125 C 1160.410156 251.441406 1161.03125 252.800781 1161.671875 254.160156 C 1170.300781 270.929688 1182.570313 285.988281 1198.121094 296.789063 C 1201.351563 298.910156 1204.621094 301.011719 1208.058594 302.820313 C 1208.988281 303.300781 1209.929688 303.789063 1210.890625 304.289063 C 1211.378906 304.53125 1212.371094 305.019531 1212.871094 305.269531 C 1216.160156 306.671875 1219.511719 307.941406 1222.871094 309.191406 C 1242.859375 315.558594 1266.21875 314.128906 1283.511719 301.480469 C 1286.648438 299.558594 1288.898438 296.21875 1292.53125 295.148438 L 1292.949219 293.570313 C 1293.101563 293.921875 1293.398438 294.628906 1293.550781 294.980469 C 1287.628906 303.949219 1278.730469 310.648438 1269.160156 315.351563 C 1266.078125 316.671875 1262.929688 317.808594 1259.738281 318.789063 C 1241.449219 324.128906 1221.578125 321.851563 1204.050781 314.859375 C 1200.609375 313.460938 1197.28125 311.808594 1193.949219 310.191406 C 1183.570313 304.660156 1174.109375 297.519531 1165.808594 289.199219 C 1157.710938 281.359375 1151.921875 271.578125 1146.191406 261.96875 C 1144.988281 259.988281 1143.828125 258 1142.660156 256.011719 C 1140.03125 251.050781 1137.410156 246.089844 1134.910156 241.070313 C 1132.949219 236.730469 1130.960938 232.398438 1129.238281 227.960938 C 1128.191406 225.269531 1127.410156 222.460938 1125.980469 219.941406 C 1124.410156 217.179688 1120.910156 216.71875 1118.050781 216.738281 C 1108.679688 216.769531 1099.328125 216.761719 1089.96875 216.761719 C 1087.269531 216.789063 1084.128906 217.109375 1082.449219 219.511719 C 1079.808594 223.140625 1079.351563 227.820313 1078.308594 232.070313 C 1073.910156 229.289063 1069.820313 226.039063 1065.109375 223.789063 C 1064.398438 223.449219 1063.699219 223.109375 1063.019531 222.769531 C 1060.679688 221.769531 1058.371094 220.699219 1056.101563 219.578125 C 1055.789063 219.511719 1055.179688 219.371094 1054.871094 219.300781 C 1052.03125 218.070313 1049.019531 217.320313 1045.988281 216.789063 C 1032.410156 214.351563 1018.328125 214.679688 1004.898438 217.808594 C 999.789063 219.148438 994.78125 220.808594 989.851563 222.691406 C 983.03125 225.691406 976.339844 229.039063 970.140625 233.199219 C 947.671875 248.339844 928.910156 269.890625 919.371094 295.429688 L 918.628906 295.308594 C 918.371094 297.351563 918.089844 299.390625 917.730469 301.410156 C 917.660156 299.28125 917.589844 297.140625 918.050781 295.050781 C 922.199219 272.730469 926.371094 250.410156 930.519531 228.101563 C 930.878906 225.371094 931.121094 222.558594 930.570313 219.851563 C 929.328125 217.519531 926.558594 216.539063 924.050781 216.671875 C 913.011719 216.691406 901.980469 216.648438 890.941406 216.691406 C 888.628906 216.441406 886.621094 217.628906 884.808594 218.878906 C 884.550781 219.398438 884.03125 220.449219 883.769531 220.96875 C 880.800781 236.648438 877.910156 252.351563 875.109375 268.058594 C 870.671875 291.691406 866.421875 315.351563 862.078125 339 C 857.859375 362.039063 853.570313 385.070313 849.390625 408.121094 C 848.75 411.070313 848.28125 414.058594 848.398438 417.089844 C 848.75 417.621094 849.449219 418.671875 849.800781 419.199219 C 850.300781 419.480469 851.289063 420.058594 851.789063 420.351563 C 861.550781 420.511719 871.308594 420.238281 881.070313 420.328125 C 885.46875 420.230469 889.96875 420.800781 894.25 419.460938 C 896.949219 415.871094 896.71875 411.191406 897.648438 406.988281 C 901.820313 384.429688 905.648438 361.800781 910.078125 339.28125 C 910.761719 353.808594 911.839844 368.890625 918.839844 381.96875 C 926.269531 396.53125 937.859375 408.96875 952 417.210938 C 953.25 417.871094 954.539063 418.558594 955.808594 419.25 C 958.121094 420.320313 960.460938 421.328125 962.851563 422.28125 C 969.621094 424.710938 976.789063 425.859375 983.988281 425.820313 C 997.328125 426.5 1010.699219 423.988281 1023.171875 419.300781 C 1026.808594 417.929688 1030.410156 416.46875 1033.898438 414.75 C 1034.941406 414.25 1036 413.761719 1037.078125 413.28125 C 1040.621094 411.269531 1044.328125 409.519531 1047.601563 407.058594 C 1047.570313 410.140625 1046.53125 413.128906 1046.660156 416.210938 C 1047.101563 419.109375 1050.359375 420.359375 1052.96875 420.328125 C 1060.660156 420.371094 1068.351563 420.308594 1076.039063 420.328125 C 1080.46875 420.238281 1085.03125 420.808594 1089.308594 419.328125 C 1091.238281 415.691406 1091.5 411.519531 1092.289063 407.550781 C 1093.480469 400.980469 1094.898438 394.441406 1095.808594 387.828125 L 1096.191406 387.21875 C 1097.128906 380.089844 1098.839844 373.089844 1099.929688 365.980469 C 1104.460938 341.839844 1108.78125 317.660156 1113.320313 293.519531 C 1114.761719 284.53125 1117.019531 275.660156 1117.929688 266.589844 C 1118.320313 266.53125 1119.089844 266.421875 1119.480469 266.359375 C 1132 281.179688 1146.339844 294.359375 1161.191406 306.808594 C 1170.539063 314.828125 1181.710938 320.460938 1193.171875 324.800781 C 1194.140625 325.140625 1195.121094 325.488281 1196.109375 325.828125 C 1218.601563 333.449219 1244.238281 333.980469 1266 323.761719 C 1267.011719 323.28125 1268.03125 322.808594 1269.070313 322.339844 C 1282.578125 315.210938 1293.859375 303.480469 1299.109375 289.011719 C 1299.769531 288.289063 1300.46875 287.589844 1301.179688 286.898438 C 1301.558594 285.640625 1301.941406 284.378906 1302.359375 283.140625 C 1303.070313 290.179688 1299.949219 296.820313 1297.300781 303.160156 C 1292.769531 312.21875 1286.058594 320.039063 1278.160156 326.320313 C 1277.058594 327.109375 1275.96875 327.910156 1274.910156 328.71875 C 1269.378906 332.628906 1263.339844 335.730469 1257.089844 338.28125 C 1232.109375 347.839844 1203.761719 346.578125 1178.878906 337.328125 C 1176.269531 336.179688 1173.660156 335.050781 1171.101563 333.828125 C 1155.230469 326.488281 1140.089844 317.410156 1126.339844 306.601563 C 1127.21875 313.601563 1129.851563 320.238281 1132.179688 326.859375 C 1134.21875 332.328125 1136.53125 337.699219 1139.28125 342.851563 C 1139.800781 343.988281 1140.328125 345.128906 1140.859375 346.289063 C 1143.519531 347.589844 1146.261719 348.730469 1149.058594 349.75 C 1150.058594 350.109375 1151.070313 350.449219 1152.109375 350.800781 C 1167.289063 356.160156 1183.011719 360.03125 1198.949219 362.320313 C 1210.308594 363.398438 1221.820313 363.03125 1233.078125 361.109375 C 1241.699219 359.398438 1250.160156 356.871094 1258.21875 353.339844 C 1268.46875 348.539063 1278.289063 342.398438 1286.078125 334.078125 C 1299.128906 321.449219 1307.46875 303.390625 1306.671875 285.050781 C 1306.78125 280.21875 1305.351563 275.5 1305.808594 270.671875 C 1306.121094 270.609375 1306.71875 270.511719 1307.019531 270.460938 C 1308.460938 275.691406 1310.398438 280.800781 1311.03125 286.230469 C 1312.890625 299.5 1310.070313 313.140625 1304.28125 325.140625 C 1303.570313 326.441406 1302.871094 327.761719 1302.21875 329.089844 C 1296.878906 338.121094 1290.328125 346.53125 1282.238281 353.28125 C 1276 358.589844 1269.261719 363.378906 1261.941406 367.101563 C 1261.238281 367.5 1260.570313 367.921875 1259.910156 368.351563 C 1259.660156 368.398438 1259.148438 368.511719 1258.898438 368.558594 C 1256.628906 369.769531 1254.320313 370.871094 1251.949219 371.820313 C 1245.761719 374.300781 1239.390625 376.328125 1232.921875 377.890625 C 1221.171875 380.738281 1209.019531 380.480469 1197.039063 381.230469 C 1192.011719 381.339844 1187.019531 380.589844 1181.988281 380.609375 C 1176.101563 380.691406 1170.320313 379.070313 1164.429688 379.53125 C 1167.160156 381.011719 1169.191406 383.390625 1171.410156 385.511719 C 1177.910156 391.941406 1185.359375 397.300781 1192.789063 402.589844 C 1194.878906 402.53125 1196.980469 402.410156 1199.078125 402.171875 C 1215.078125 399.578125 1230.871094 395.691406 1246.148438 390.25 C 1247.390625 389.75 1248.691406 389.261719 1249.980469 388.761719 C 1252.351563 387.871094 1254.691406 386.890625 1257.011719 385.851563 C 1258.691406 384.988281 1260.378906 384.140625 1262.078125 383.289063 C 1271.101563 378.25 1279.691406 372.339844 1287.171875 365.171875 C 1296.070313 356.769531 1303.648438 346.949219 1309.179688 336.011719 C 1318.898438 316.359375 1321.480469 292.179688 1311.851563 272.011719 C 1309.589844 266.601563 1305.460938 262.300781 1302.78125 257.148438 C 1302.261719 255.519531 1301.320313 254.109375 1300.28125 252.800781 C 1309.78125 260.171875 1317.679688 269.738281 1321.921875 281.070313 C 1326.691406 293.109375 1327.511719 306.300781 1326.121094 319.070313 C 1325.011719 326.160156 1323.339844 333.171875 1320.820313 339.910156 C 1320.171875 341.609375 1319.511719 343.308594 1318.839844 345 C 1314.519531 354.730469 1308.890625 363.878906 1302.058594 372.050781 C 1289.230469 388.429688 1270.949219 399.199219 1253.050781 409.171875 C 1251.710938 409.839844 1250.398438 410.519531 1249.109375 411.21875 C 1248.011719 411.71875 1246.929688 412.230469 1245.859375 412.75 C 1242 414.710938 1238 416.378906 1234.070313 418.179688 C 1232.371094 418.851563 1230.660156 419.488281 1228.941406 420.050781 C 1242.570313 424.761719 1256.871094 427.410156 1271.261719 428.191406 C 1274.609375 426.359375 1277.359375 423.648438 1280.390625 421.359375 C 1294.550781 409.640625 1307.539063 396.421875 1318.75 381.839844 C 1319.570313 380.609375 1320.410156 379.378906 1321.25 378.160156 C 1325.128906 372.089844 1328.429688 365.671875 1331.308594 359.070313 C 1340.851563 336.078125 1343.148438 309.429688 1334.238281 285.890625 C 1329.828125 275.121094 1323.25 265.039063 1314.128906 257.691406 C 1307.851563 252.550781 1300.480469 249.109375 1292.941406 246.300781 C 1291.558594 245.550781 1290.058594 245.03125 1288.609375 244.550781 C 1294.699219 243.761719 1300.648438 245.789063 1306.328125 247.75 C 1324.128906 254.511719 1337.738281 269.621094 1345.269531 286.820313 C 1356.25 312.109375 1355.449219 341.378906 1346.25 367.078125 C 1345.160156 369.691406 1344.050781 372.308594 1342.878906 374.890625 C 1338.019531 385.628906 1332.25 395.949219 1325.871094 405.851563 C 1322.078125 412.148438 1317.050781 417.609375 1313.441406 424 C 1315.949219 423.761719 1318.53125 423.46875 1320.96875 422.679688 C 1331.71875 419.570313 1342.300781 415.628906 1352.109375 410.21875 C 1352.429688 409.179688 1352.769531 408.148438 1353.148438 407.128906 C 1353.828125 405.460938 1354.519531 403.789063 1355.238281 402.140625 C 1360.539063 387.761719 1364.828125 373 1367.449219 357.890625 C 1372.058594 333.738281 1368.671875 308.039063 1357.699219 286 C 1353.429688 277.769531 1348.191406 269.960938 1341.558594 263.449219 C 1330.230469 251.441406 1314.609375 243.300781 1298.058594 241.929688 C 1292.660156 241.011719 1287.300781 242.488281 1281.898438 242.359375 C 1280.28125 241.851563 1278.671875 241.421875 1277.03125 241.078125 C 1280.859375 240.648438 1284.441406 239.109375 1288.199219 238.308594 C 1293.03125 237.101563 1298.050781 237.261719 1303 237.011719 C 1311.648438 237.261719 1320.121094 239.390625 1328.089844 242.691406 C 1339.78125 247.820313 1350.289063 255.640625 1358.738281 265.199219 C 1360.410156 267.191406 1362.140625 269.140625 1363.78125 271.179688 C 1368.230469 277.011719 1371.898438 283.390625 1375.300781 289.878906 C 1375.75 290.949219 1376.25 292.019531 1376.75 293.089844 C 1377.46875 294.738281 1378.148438 296.410156 1378.828125 298.101563 C 1382.128906 306.128906 1384.25 314.578125 1385.910156 323.089844 C 1388.871094 339.191406 1390.058594 355.71875 1388.578125 372.050781 C 1388.210938 381.691406 1386.140625 391.25 1382.269531 400.109375 C 1380.089844 404.878906 1377.261719 409.308594 1374.570313 413.800781 C 1374.539063 414.921875 1374.550781 416.039063 1374.570313 417.171875 C 1374.890625 417.710938 1375.539063 418.78125 1375.859375 419.308594 C 1376.390625 419.558594 1377.441406 420.050781 1377.96875 420.289063 C 1390.648438 420.378906 1403.339844 420.308594 1416.03125 420.328125 C 1421.289063 420.078125 1426.699219 420.859375 1431.878906 419.898438 C 1437.359375 415.058594 1441.660156 409.039063 1446.960938 404.011719 C 1466.289063 383 1485.871094 362.210938 1505.128906 341.128906 C 1521.011719 324.308594 1536.53125 307.171875 1552.289063 290.238281 C 1552.519531 289.96875 1552.980469 289.421875 1553.199219 289.148438 C 1562.699219 279 1572.039063 268.710938 1581.449219 258.480469 C 1593.570313 244.949219 1606.21875 231.871094 1617.800781 217.871094 C 1615.601563 235.070313 1611.558594 252 1609.210938 269.179688 L 1608.808594 269.828125 C 1607.679688 277.558594 1606.328125 285.261719 1604.851563 292.929688 C 1604.578125 294.628906 1604.359375 296.328125 1604.109375 298.03125 C 1603.300781 301.988281 1602.75 306 1601.941406 309.960938 C 1599.199219 326.738281 1595.878906 343.429688 1593.210938 360.21875 L 1592.820313 360.820313 C 1591.609375 369.648438 1589.589844 378.328125 1588.160156 387.121094 C 1586.351563 397.089844 1583.96875 406.980469 1582.621094 417.019531 C 1582.941406 417.578125 1583.578125 418.710938 1583.898438 419.28125 C 1586.148438 420.230469 1588.578125 420.558594 1591.050781 420.441406 C 1603.390625 420.21875 1615.738281 420.421875 1628.089844 420.289063 C 1628.589844 420.011719 1629.578125 419.460938 1630.070313 419.191406 C 1644.078125 400.480469 1658.148438 381.828125 1672.238281 363.179688 C 1687.910156 342.46875 1703.5 321.691406 1719.320313 301.101563 C 1720.078125 300.011719 1720.871094 298.929688 1721.679688 297.851563 C 1731.558594 284.980469 1741.351563 272.039063 1751.25 259.171875 C 1759.199219 248.808594 1767.171875 238.460938 1775.269531 228.210938 C 1777.609375 225.519531 1779.371094 222.300781 1782.179688 220.03125 C 1782.570313 219.191406 1782.96875 218.359375 1783.398438 217.53125 C 1783.089844 222.410156 1781.699219 227.128906 1780.871094 231.929688 C 1776.089844 257.96875 1771.339844 284.039063 1767.210938 310.199219 L 1766.808594 310.800781 C 1761.28125 344.921875 1755 378.929688 1748.390625 412.859375 C 1748.109375 414.898438 1747.769531 417.25 1749.289063 418.949219 L 1749.460938 419.539063 C 1752.511719 420.730469 1755.820313 420.398438 1759.039063 420.421875 C 1767.339844 420.398438 1775.648438 420.410156 1783.960938 420.421875 C 1787.71875 420.371094 1791.671875 420.878906 1795.210938 419.21875 C 1796.449219 415.21875 1797.011719 411.050781 1797.761719 406.929688 C 1799.378906 396.878906 1801.339844 386.890625 1802.808594 376.820313 L 1803.21875 376.179688 C 1804.550781 366.449219 1806.371094 356.789063 1808.179688 347.140625 C 1808.410156 345.441406 1808.710938 343.738281 1809.210938 342.089844 C 1809.5 339.820313 1809.730469 337.539063 1810.089844 335.28125 C 1810.519531 340.179688 1809.78125 345.128906 1808.828125 349.941406 C 1808.441406 354.238281 1808.121094 358.621094 1808.929688 362.898438 C 1812.160156 379.539063 1821.359375 394.800781 1833.910156 406.101563 C 1840.390625 412.648438 1848.429688 417.511719 1856.808594 421.269531 C 1865.398438 424.808594 1874.71875 426.128906 1883.988281 425.839844 C 1896.339844 426.238281 1908.550781 423.410156 1920.109375 419.230469 C 1922.019531 418.410156 1923.96875 417.628906 1925.910156 416.828125 C 1931.378906 414.46875 1936.699219 411.75 1941.871094 408.769531 C 1943.011719 408.390625 1943.828125 407.621094 1944.519531 406.609375 C 1944.128906 411.171875 1941.058594 418.050781 1946.800781 420.410156 C 1957.851563 420.410156 1968.910156 420.410156 1979.96875 420.421875 C 1982.101563 420.519531 1984.171875 419.878906 1986.191406 419.210938 C 1986.988281 417.160156 1987.601563 415.039063 1987.851563 412.839844 L 1988.199219 412.210938 C 1989.730469 401.710938 1992.328125 391.390625 1993.828125 380.890625 L 1994.230469 380.308594 C 1996.449219 366.449219 1999.398438 352.71875 2001.859375 338.910156 C 2005.359375 320.691406 2008.730469 302.441406 2012.179688 284.210938 C 2012.75 280.851563 2013.398438 277.5 2014.148438 274.171875 C 2017.128906 257.53125 2019.859375 240.839844 2022.570313 224.148438 C 2023.429688 220.589844 2020.828125 216.929688 2017.078125 217.058594 C 2007.410156 216.621094 1997.691406 217.089844 1988 216.820313 C 1984.738281 216.839844 1980.28125 216.878906 1978.890625 220.488281 C 1977.75 224.609375 1977.121094 228.839844 1976.179688 233.011719 C 1972.46875 231.191406 1969.628906 228.070313 1966.011719 226.128906 C 1960.128906 222.621094 1953.800781 219.96875 1947.398438 217.621094 C 1925.308594 212.648438 1901.539063 215.351563 1881.140625 225.230469 C 1880.019531 225.71875 1878.929688 226.21875 1877.871094 226.710938 C 1852.980469 239.78125 1832.53125 260.859375 1819.800781 285.890625 C 1819 287.570313 1818.25 289.261719 1817.550781 290.96875 C 1818.570313 286.671875 1819.039063 282.261719 1819.921875 277.929688 C 1822.699219 263.339844 1825.328125 248.71875 1828.160156 234.128906 C 1830.359375 221.46875 1832.851563 208.851563 1835.171875 196.199219 C 1838.679688 177.050781 1842.390625 157.941406 1845.769531 138.761719 L 1846.140625 138.109375 C 1846.808594 130.941406 1849.660156 123.941406 1848.578125 116.660156 C 1846.828125 115.851563 1844.988281 115.191406 1843.058594 115.351563 C 1828.660156 115.519531 1814.25 115.261719 1799.851563 115.519531 C 1783.851563 135.71875 1768.53125 156.449219 1752.71875 176.789063 C 1749.410156 181.148438 1746.078125 185.488281 1742.75 189.828125 C 1716.808594 223.519531 1690.921875 257.238281 1664.519531 290.558594 C 1659.671875 296.28125 1655.390625 302.519531 1650.039063 307.800781 C 1650.339844 307.25 1650.929688 306.160156 1651.21875 305.621094 C 1652.75 295.570313 1655.28125 285.691406 1657.019531 275.671875 C 1662.011719 249.539063 1666.511719 223.328125 1671.171875 197.148438 C 1672.03125 191.71875 1673.210938 186.339844 1673.820313 180.871094 L 1674.21875 180.289063 C 1676.511719 164.808594 1679.53125 149.441406 1681.941406 133.96875 C 1682.761719 129 1684.121094 124.03125 1683.78125 118.960938 C 1683.921875 117.25 1682.351563 116.398438 1681.28125 115.460938 C 1665.089844 115.421875 1648.898438 115.269531 1632.71875 115.539063 C 1629.378906 119.28125 1625.980469 122.96875 1622.769531 126.820313 C 1590.75 163.789063 1558.738281 200.769531 1526.730469 237.75 C 1493.300781 276.320313 1459.890625 314.921875 1426.46875 353.5 C 1423.128906 356.949219 1420.578125 361.148438 1416.730469 364.078125 C 1414.96875 350.480469 1412.078125 337.03125 1408.171875 323.890625 C 1406.011719 316.820313 1403.628906 309.820313 1401.210938 302.839844 C 1400.421875 300.980469 1399.03125 299 1400.128906 296.960938 C 1399.460938 297.871094 1398.691406 298.910156 1397.46875 298.328125 L 1399.089844 297.640625 C 1390.988281 275.5 1375.511719 256.050781 1355.828125 243.078125 C 1337.53125 231.101563 1314.390625 225.199219 1292.871094 230.808594 C 1284.929688 233.070313 1277.289063 236.628906 1270.839844 241.839844 C 1268.921875 243.53125 1266.449219 244.300781 1264.039063 244.929688 C 1272.300781 234.359375 1283.878906 226.519531 1296.769531 222.769531 C 1313.269531 218.019531 1330.980469 219.390625 1347.171875 224.75 C 1348.378906 225.238281 1349.648438 225.730469 1350.910156 226.21875 C 1354.441406 227.460938 1357.800781 229.121094 1361.199219 230.691406 C 1375.058594 237.789063 1387.238281 247.871094 1397.421875 259.621094 C 1404.828125 269.160156 1411.421875 279.328125 1417.21875 289.941406 C 1420.320313 295.539063 1423.238281 301.238281 1425.789063 307.121094 C 1426.789063 309.421875 1427.769531 311.71875 1428.851563 313.988281 C 1429.128906 314.671875 1429.699219 316.03125 1429.980469 316.710938 C 1430.21875 314.828125 1430.601563 312.96875 1431.128906 311.148438 C 1433.671875 300.960938 1435.859375 290.550781 1435.828125 280 C 1436.078125 277.878906 1434.449219 276.410156 1433.359375 274.828125 C 1429.078125 269.390625 1424.648438 264.070313 1419.949219 259 C 1407.789063 246.488281 1395.28125 233.789063 1379.898438 225.25 C 1378.980469 224.730469 1378.078125 224.210938 1377.191406 223.699219 C 1375.121094 222.730469 1373.078125 221.730469 1371.050781 220.699219 C 1370.550781 220.460938 1369.550781 219.988281 1369.050781 219.75 C 1344.980469 209.121094 1316.539063 206.550781 1291.871094 216.691406 C 1284.289063 220.019531 1277.179688 224.449219 1271.070313 230.050781 C 1263.539063 237.179688 1258.199219 246.328125 1254.488281 255.949219 C 1254.480469 255.101563 1254.449219 253.398438 1254.429688 252.550781 C 1253.929688 254.101563 1252.910156 257.210938 1252.398438 258.761719 C 1252.148438 254.300781 1253.679688 250.109375 1254.800781 245.890625 C 1257.328125 239.171875 1260.699219 232.75 1265.210938 227.140625 C 1275.289063 214.511719 1289.628906 205.699219 1305.03125 201.101563 C 1326.859375 194.441406 1350.5 195.910156 1372.078125 202.828125 C 1373.761719 203.46875 1375.46875 204.109375 1377.171875 204.761719 C 1380.421875 206.21875 1383.738281 207.558594 1386.890625 209.269531 C 1387.949219 209.761719 1389.019531 210.261719 1390.121094 210.75 C 1392.730469 212.128906 1395.351563 213.5 1397.988281 214.859375 C 1409.710938 221.238281 1420.71875 228.828125 1431.429688 236.769531 C 1431.660156 237.21875 1432.128906 238.140625 1432.359375 238.589844 C 1432.179688 231.140625 1429.039063 224.101563 1426.808594 217.078125 C 1424.421875 210.101563 1421.160156 203.480469 1417.980469 196.839844 C 1416.371094 196.140625 1414.738281 195.449219 1413.148438 194.769531 C 1408.089844 192.789063 1403.039063 190.761719 1397.839844 189.179688 C 1390.421875 186.578125 1382.761719 184.75 1375.148438 182.839844 C 1371.089844 182.078125 1367.078125 181.121094 1363.019531 180.460938 C 1342.25 176.589844 1320.511719 179.191406 1300.839844 186.730469 C 1297.558594 188.210938 1294.261719 189.640625 1291.058594 191.28125 C 1284.539063 194.800781 1278.390625 199.011719 1272.859375 203.929688 C 1272.019531 204.75 1271.171875 205.550781 1270.351563 206.351563 C 1269.511719 207.179688 1268.710938 208.019531 1267.890625 208.851563 C 1261.578125 215.210938 1256.601563 222.851563 1253.128906 231.101563 C 1248.769531 241.769531 1247.199219 253.640625 1249.261719 265.011719 C 1249.808594 267.960938 1249.390625 270.949219 1249.441406 273.929688 C 1248.699219 271.898438 1247.949219 269.890625 1247.191406 267.890625 C 1243.941406 259.011719 1242.960938 249.429688 1243.859375 240.039063 C 1244.710938 234.550781 1245.871094 229.128906 1247.75 223.898438 C 1248.75 221.550781 1249.769531 219.210938 1250.761719 216.859375 C 1259.871094 198.261719 1275.769531 183.589844 1294.039063 174.179688 C 1295.648438 173.371094 1297.28125 172.570313 1298.921875 171.769531 C 1300.960938 170.890625 1303.019531 170 1305.109375 169.199219 C 1316.859375 164.558594 1329.339844 161.710938 1341.980469 161.328125 C 1353.640625 160.238281 1365.410156 160.378906 1377.078125 161.398438 C 1382.53125 161.421875 1387.871094 162.941406 1393.351563 162.601563 C 1392.949219 162.300781 1392.160156 161.699219 1391.769531 161.398438 C 1382.96875 152.160156 1372.808594 144.378906 1362.160156 137.429688 C 1354.601563 137.710938 1347.25 139.730469 1339.800781 140.800781 L 1339.199219 141.191406 C 1327.589844 143.511719 1316.230469 147.011719 1305.160156 151.160156 C 1303.449219 151.808594 1301.75 152.46875 1300.078125 153.171875 C 1282.308594 161.050781 1266.429688 173.359375 1254.691406 188.878906 C 1248.871094 196.820313 1244.121094 205.539063 1240.78125 214.808594 C 1236.03125 228.71875 1234.929688 243.96875 1238.769531 258.230469 C 1239.421875 260.179688 1240.089844 262.140625 1240.738281 264.101563 C 1243.238281 270.230469 1246.621094 276.03125 1250.941406 281.058594 C 1252.78125 283.199219 1253.851563 285.859375 1255.550781 288.109375 C 1244.210938 280.519531 1235.640625 269.019531 1231.421875 256.058594 C 1224.578125 236.101563 1227.46875 213.949219 1235.730469 194.871094 C 1237.480469 190.761719 1239.648438 186.859375 1241.789063 182.949219 C 1250.621094 168.53125 1262.21875 155.671875 1276.300781 146.238281 C 1284.261719 140.738281 1292.558594 135.730469 1301.089844 131.171875 C 1302.410156 130.46875 1303.738281 129.789063 1305.101563 129.140625 C 1306.691406 128.351563 1308.269531 127.53125 1309.851563 126.699219 C 1310.929688 126.230469 1312.03125 125.75 1313.140625 125.28125 C 1315.421875 124.21875 1317.730469 123.191406 1320.050781 122.179688 C 1321.171875 121.78125 1322.308594 121.390625 1323.480469 121.019531 C 1323.441406 120.75 1323.378906 120.210938 1323.351563 119.929688 C 1309.441406 116.109375 1295.101563 114.070313 1280.679688 113.671875 C 1275.078125 117.660156 1269.929688 122.230469 1264.828125 126.839844 M 288.941406 115.78125 C 284.941406 119.519531 281.660156 123.949219 277.980469 127.988281 C 231.050781 182.039063 184.171875 236.121094 137.230469 290.160156 C 115.089844 315.710938 92.929688 341.261719 70.730469 366.761719 C 57.582031 381.941406 44.429688 397.128906 31.25 412.261719 C 29.519531 414.429688 30.539063 417.351563 31.738281 419.5 C 33.449219 419.960938 35.167969 420.488281 36.96875 420.421875 C 53.800781 420.410156 70.628906 420.398438 87.460938 420.421875 C 88.808594 419.46875 90.140625 418.46875 91.199219 417.199219 C 108.480469 397.828125 125.53125 378.238281 142.75 358.800781 C 145.238281 355.640625 148.230469 352.910156 150.730469 349.761719 C 187.878906 307.570313 225.03125 265.378906 261.960938 222.988281 C 264.949219 219.449219 268.28125 216.140625 270.628906 212.121094 C 270.980469 217.988281 268.960938 223.589844 268.21875 229.359375 C 265.328125 245.171875 262.828125 261.050781 259.859375 276.851563 C 257.761719 290.261719 255.269531 303.609375 252.921875 316.980469 C 251.140625 327.75 248.988281 338.460938 247.210938 349.238281 L 246.808594 349.851563 C 246.609375 351.570313 246.378906 353.28125 246.128906 355 C 242.378906 374 238.890625 393.058594 234.699219 411.96875 C 234.128906 414.230469 234.039063 416.640625 235.03125 418.820313 C 235.960938 419.320313 236.890625 419.828125 237.808594 420.371094 C 251.609375 420.390625 265.398438 420.300781 279.199219 420.320313 C 279.691406 420.058594 280.660156 419.539063 281.148438 419.28125 C 296.378906 399.03125 311.199219 378.480469 326.308594 358.148438 C 327.101563 357.050781 327.890625 355.960938 328.671875 354.871094 C 330.738281 352.25 332.699219 349.539063 334.679688 346.851563 C 339.390625 340.558594 344.039063 334.210938 348.710938 327.890625 C 357.359375 316.199219 366.058594 304.550781 374.710938 292.859375 C 376.949219 289.988281 379.101563 287.039063 381.269531 284.109375 C 392.199219 269.398438 403.21875 254.761719 414.28125 240.160156 C 421.308594 231.21875 427.828125 221.828125 435.449219 213.378906 C 435.640625 212.898438 436.039063 211.941406 436.230469 211.449219 C 434.058594 225.050781 431.179688 238.539063 429.148438 252.171875 C 426.261719 268.71875 423.808594 285.339844 420.859375 301.878906 C 419.828125 309.628906 418.191406 317.289063 417.109375 325.03125 C 411.839844 354.761719 406.539063 384.511719 399.53125 413.890625 C 399.019531 415.859375 399.699219 417.789063 400.621094 419.53125 C 402.679688 420.019531 404.761719 420.519531 406.910156 420.441406 C 417.941406 420.378906 428.96875 420.421875 440 420.421875 C 441.828125 420.46875 443.640625 420.070313 445.398438 419.601563 C 446.171875 417.921875 446.910156 416.21875 447.25 414.398438 C 448.789063 405.609375 450.480469 396.859375 452.160156 388.101563 C 454.828125 374.101563 457.148438 360.019531 460.191406 346.089844 C 460.480469 344.171875 460.75 342.238281 461.21875 340.351563 C 461.539063 340.5 462.179688 340.78125 462.5 340.929688 L 461.148438 341.101563 C 461.410156 352.339844 463.179688 363.558594 466.710938 374.238281 C 467.21875 375.46875 467.71875 376.691406 468.230469 377.929688 C 477.03125 399.128906 496.25 415.398438 518.148438 421.851563 C 540.101563 428.871094 564.089844 425.691406 585.179688 417.238281 C 588.140625 415.929688 591.101563 414.589844 594.019531 413.171875 C 596.371094 411.820313 598.75 410.519531 601.160156 409.25 C 618.519531 398.75 633.410156 383.890625 643.210938 366.058594 C 643.46875 365.550781 643.980469 364.539063 644.238281 364.039063 C 644.789063 362.988281 645.359375 361.960938 645.96875 360.941406 C 647.820313 357.261719 645.910156 351.808594 641.410156 351.550781 C 631.28125 351.191406 621.140625 351.53125 611.011719 351.390625 C 608.378906 351.480469 605.191406 350.960938 603.300781 353.261719 C 595.300781 362.089844 585.921875 369.960938 574.96875 374.859375 C 565.601563 379.089844 555.140625 381.019531 544.878906 380.191406 C 540.089844 379.398438 535.328125 378.261719 530.878906 376.28125 C 529.929688 375.789063 528.988281 375.308594 528.050781 374.839844 C 516.039063 368.160156 506.460938 355.5 506.289063 341.410156 C 505.96875 341.269531 505.328125 340.988281 505.011719 340.851563 C 510.960938 340.171875 516.960938 340.621094 522.941406 340.488281 C 567.078125 340.441406 611.21875 340.601563 655.371094 340.410156 C 656.011719 339.96875 656.660156 339.539063 657.308594 339.109375 C 657.441406 352 658.769531 365.140625 663.75 377.148438 C 671.511719 395.078125 685.441406 410.328125 702.871094 419.238281 C 705.199219 420.25 707.539063 421.25 709.878906 422.269531 C 710.410156 422.421875 711.46875 422.710938 712.011719 422.859375 C 726.941406 427.640625 743.109375 426.449219 758.230469 423.199219 L 758.800781 422.871094 C 765.011719 421.421875 770.988281 419.128906 776.871094 416.679688 C 778.898438 415.800781 780.910156 414.859375 782.878906 413.820313 C 783.929688 413.308594 784.960938 412.800781 786.03125 412.300781 C 788.488281 410.890625 790.988281 409.539063 793.429688 408.089844 C 793.691406 406.941406 794.378906 406.070313 795.558594 406.710938 L 794.390625 407.050781 C 794.789063 411.109375 793.609375 415.191406 794.628906 419.21875 C 796.679688 419.921875 798.78125 420.558594 800.988281 420.429688 C 811.378906 420.28125 821.769531 420.378906 832.160156 420.300781 C 834.109375 420.410156 835.710938 419.148438 837.339844 418.25 C 842.578125 391.929688 847.050781 365.460938 852.171875 339.121094 C 853.871094 328.621094 856.230469 318.230469 857.78125 307.710938 L 858.171875 307.121094 C 863.148438 278.371094 868.730469 249.710938 873.921875 221 C 877.371094 202.691406 880.648438 184.339844 884.121094 166.03125 C 885.601563 162 883.351563 157.75 879.230469 156.691406 C 868.449219 156.890625 857.671875 156.648438 846.898438 156.769531 C 844.351563 156.5 842.441406 158.269531 840.730469 159.859375 C 837.890625 172.179688 835.640625 184.621094 832.871094 196.960938 C 830.820313 208.609375 827.609375 220.058594 826.03125 231.800781 C 821.761719 230.871094 818.960938 226.851563 814.910156 225.25 C 813.289063 224.441406 811.699219 223.589844 810.128906 222.738281 C 807.390625 221.539063 804.660156 220.359375 801.960938 219.121094 C 799.429688 217.949219 796.730469 217.21875 794 216.769531 C 776.398438 213.691406 757.96875 215.089844 741.160156 221.238281 C 739.441406 221.871094 737.75 222.53125 736.070313 223.21875 C 727.070313 226.960938 718.679688 232 710.828125 237.738281 C 700.578125 245.648438 691.21875 254.789063 683.320313 265.058594 C 679.171875 270.410156 675.480469 276.121094 672.25 282.070313 C 671.429688 283.691406 670.570313 285.28125 669.699219 286.878906 C 668.191406 290.378906 666.441406 293.808594 665.320313 297.46875 L 664.578125 297.5 C 664.511719 298.28125 664.351563 299.839844 664.28125 300.621094 C 663.328125 292.300781 662.480469 283.929688 660.230469 275.828125 C 658.511719 269.769531 656.550781 263.75 653.828125 258.070313 C 653.320313 256.980469 652.808594 255.910156 652.308594 254.839844 C 647.570313 247.710938 642.351563 240.71875 635.628906 235.339844 C 624.441406 225.519531 610.210938 219.5 595.578125 217.179688 C 585.46875 215.648438 575.078125 214.898438 564.96875 216.859375 C 558.261719 218.230469 551.609375 219.898438 545.160156 222.191406 C 539.921875 224.019531 534.859375 226.300781 529.878906 228.730469 C 528.589844 229.398438 527.289063 230.058594 526.011719 230.730469 C 504.21875 242.769531 485.171875 260.449219 473.28125 282.460938 L 472.621094 282.511719 C 472.339844 283.878906 472.070313 285.261719 471.75 286.628906 C 471.671875 285.140625 471.699219 283.648438 471.851563 282.171875 C 481.628906 228.46875 491.5 174.78125 501.308594 121.089844 C 502.179688 118.589844 500.070313 116.898438 498.449219 115.441406 C 483.5 115.390625 468.550781 115.371094 453.601563 115.449219 C 447.839844 120.851563 443.800781 127.789063 438.738281 133.808594 C 400.269531 183.640625 361.839844 233.5 322.730469 282.839844 C 321.589844 284.289063 320.410156 285.730469 319.28125 287.199219 C 313.988281 293.941406 308.28125 300.359375 303.300781 307.328125 C 303.191406 303.421875 304.039063 299.628906 304.851563 295.851563 C 309.339844 271.898438 313.640625 247.910156 317.851563 223.898438 C 323.859375 190.671875 329.480469 157.359375 335.441406 124.121094 C 335.941406 121.078125 336.480469 117.210938 333.269531 115.449219 C 320.179688 115.351563 307.089844 115.429688 294 115.398438 C 292.308594 115.449219 290.578125 115.339844 288.941406 115.78125 M 894.679688 160.480469 C 893.609375 167.109375 892.179688 173.691406 891.238281 180.339844 L 890.820313 180.929688 C 889.941406 188.691406 888.019531 196.28125 886.921875 204 C 886.648438 206.191406 887.851563 208.210938 888.820313 210.089844 C 889.839844 210.488281 890.871094 210.910156 891.898438 211.339844 C 903.261719 211.53125 914.621094 211.351563 925.980469 211.449219 C 927.949219 211.53125 929.898438 211.128906 931.769531 210.488281 C 933.039063 208.839844 934.441406 207.140625 934.671875 204.988281 C 937.261719 191.359375 939.78125 177.71875 942.300781 164.078125 C 943.019531 160.609375 940.328125 157.679688 937.238281 156.640625 C 924.789063 156.738281 912.328125 156.691406 899.871094 156.648438 C 897.769531 157.390625 895.96875 158.671875 894.679688 160.480469 M 2365.941406 155.738281 C 2363.539063 156.660156 2361.171875 157.621094 2358.859375 158.679688 C 2355.429688 161.089844 2352.800781 164.371094 2350.730469 167.980469 C 2350.601563 168.488281 2350.320313 169.519531 2350.191406 170.03125 C 2348.148438 175.289063 2348.738281 180.988281 2350.589844 186.199219 C 2353.609375 192.210938 2359.070313 197.269531 2365.820313 198.578125 C 2375.378906 201.089844 2385.988281 195.929688 2390.359375 187.140625 C 2394.25 178.910156 2392.921875 168.230469 2386.140625 161.898438 C 2381.148438 156.269531 2373.121094 154.660156 2365.941406 155.738281 M 2135.398438 158.589844 L 2135.351563 159.171875 C 2134.289063 160.949219 2133.960938 163.011719 2133.601563 165.019531 C 2132.171875 172.761719 2130.371094 180.441406 2129.21875 188.230469 L 2128.808594 188.839844 C 2127.480469 197.960938 2125.46875 206.960938 2124.148438 216.089844 C 2122.75 215.648438 2121.378906 215.179688 2120.050781 214.671875 C 2108.238281 214.628906 2096.699219 218.261719 2086.058594 223.140625 C 2084.710938 223.820313 2083.390625 224.511719 2082.089844 225.191406 C 2080.308594 226.039063 2078.421875 226.988281 2077.339844 228.691406 C 2077.289063 226.011719 2077.398438 223.339844 2077.441406 220.671875 C 2076.429688 219.519531 2075.390625 218.410156 2074.320313 217.371094 C 2064.539063 217.101563 2054.769531 217.308594 2045 217.230469 C 2041.480469 217.300781 2037.769531 216.800781 2034.53125 218.46875 C 2031.839844 224.710938 2031.691406 231.640625 2030.160156 238.191406 C 2025.460938 263.820313 2020.769531 289.449219 2016.121094 315.089844 C 2009.890625 348.070313 2004.269531 381.191406 1997.78125 414.109375 C 1998.191406 415.421875 1998.640625 416.738281 1999.078125 418.058594 C 2000.148438 419.078125 2001.480469 419.691406 2002.851563 420.320313 C 2013.5 420.289063 2024.160156 420.5 2034.820313 420.398438 C 2036.859375 420.511719 2038.519531 419.210938 2040.191406 418.210938 C 2040.460938 417.449219 2040.761719 416.710938 2041.101563 415.96875 C 2046.480469 389.691406 2051.648438 363.371094 2057.128906 337.109375 C 2057.339844 335.710938 2057.578125 334.308594 2057.851563 332.921875 C 2060.050781 322.929688 2061.871094 312.871094 2063.980469 302.859375 C 2065.160156 296.210938 2067.710938 289.898438 2070.761719 283.898438 C 2076.261719 273.921875 2085.371094 266.171875 2096.03125 262.191406 C 2101.75 260.191406 2107.699219 258.710938 2113.828125 259.140625 C 2106.429688 304.5 2098.539063 349.789063 2091.148438 395.148438 C 2090.28125 399.53125 2089.628906 403.960938 2088.800781 408.351563 C 2088.351563 411.511719 2087.578125 414.921875 2088.980469 417.960938 C 2089.359375 418.160156 2090.109375 418.558594 2090.488281 418.761719 L 2090.550781 419.550781 C 2094.589844 420.828125 2098.859375 420.351563 2103.050781 420.410156 C 2109.351563 420.410156 2115.660156 420.398438 2121.96875 420.421875 C 2125.648438 420.359375 2129.570313 420.910156 2132.941406 419.019531 C 2135.109375 415.890625 2135.371094 411.988281 2136.191406 408.371094 C 2138.050781 398.488281 2140.191406 388.660156 2141.761719 378.71875 L 2142.140625 378.109375 C 2144.460938 364.078125 2147.011719 350.070313 2149.761719 336.109375 C 2151.570313 340.46875 2154.570313 344.171875 2156.96875 348.210938 C 2161.238281 354.75 2165.011719 361.621094 2169.46875 368.03125 C 2169.488281 368.269531 2169.539063 368.738281 2169.558594 368.980469 C 2171.53125 371.53125 2173.210938 374.300781 2174.78125 377.121094 C 2183.039063 390.511719 2191.148438 403.988281 2199.300781 417.449219 C 2200.738281 420.261719 2204.191406 420.539063 2207.011719 420.429688 C 2219.019531 420.300781 2231.039063 420.601563 2243.050781 420.28125 C 2243.960938 419.988281 2244.941406 419.75 2245.921875 419.550781 C 2247.738281 420.710938 2249.929688 420.390625 2252.019531 420.429688 C 2264.421875 420.390625 2276.820313 420.410156 2289.21875 420.429688 C 2291.480469 419.390625 2293.800781 417.851563 2293.980469 415.070313 C 2296.769531 400.449219 2299.289063 385.78125 2302.171875 371.179688 C 2304.058594 360.449219 2306.070313 349.75 2308.121094 339.058594 C 2312.890625 312.871094 2317.738281 286.691406 2322.589844 260.519531 C 2334.730469 260.421875 2346.871094 260.371094 2359.019531 260.429688 C 2361.890625 260.738281 2364.851563 259.761719 2366.511719 257.269531 C 2368.808594 246.960938 2369.980469 236.429688 2372.230469 226.121094 C 2372.941406 222.871094 2372.160156 219.410156 2369.320313 217.449219 C 2367.53125 217.148438 2365.761719 216.769531 2363.988281 216.761719 C 2352.808594 216.691406 2341.628906 216.898438 2330.460938 216.648438 C 2333.390625 201.46875 2336.089844 186.238281 2339.140625 171.078125 C 2339.539063 167.800781 2340.789063 164.539063 2340.351563 161.199219 C 2339.691406 158.808594 2337.320313 157.578125 2335.238281 156.679688 C 2323.140625 156.890625 2311.03125 156.648438 2298.941406 156.789063 C 2295.828125 156.648438 2292.910156 159.03125 2292.539063 162.128906 C 2289.109375 180.488281 2285.738281 198.859375 2282.308594 217.230469 C 2273.609375 217.710938 2264.671875 216.050781 2256.230469 218.648438 C 2253.949219 216.671875 2250.761719 216.820313 2247.96875 216.941406 C 2234.628906 217.449219 2221.21875 215.898438 2207.941406 217.640625 C 2193.558594 235.351563 2179.46875 253.339844 2164.140625 270.25 C 2163.558594 271.140625 2163 272.03125 2162.46875 272.929688 C 2161.921875 269.589844 2162.53125 266.269531 2163.230469 263.011719 C 2169.070313 229.980469 2175.371094 197.019531 2181.429688 164.03125 C 2182.261719 160.46875 2179.371094 157.601563 2176.199219 156.691406 C 2164.410156 156.75 2152.628906 156.640625 2140.851563 156.679688 C 2138.808594 156.558594 2137.101563 157.71875 2135.398438 158.589844 M 2361.851563 161.679688 C 2367.078125 159.148438 2373.511719 158.5 2378.738281 161.410156 C 2386.109375 164.910156 2390.101563 174.03125 2387.878906 181.839844 C 2386.261719 188.421875 2380.539063 193.75 2373.871094 194.921875 C 2370.089844 195.898438 2366.269531 194.769531 2362.769531 193.429688 C 2358.511719 191.160156 2355.210938 187.28125 2353.730469 182.691406 C 2352.820313 179.101563 2353.148438 175.371094 2353.671875 171.761719 C 2355.261719 167.621094 2358.160156 164.140625 2361.851563 161.679688 M 2361.46875 165.5 C 2361.410156 173.429688 2361.320313 181.351563 2361.488281 189.28125 C 2363.121094 189.269531 2364.78125 189.261719 2366.460938 189.269531 C 2366.511719 186.101563 2366.5 182.929688 2366.519531 179.761719 C 2368.351563 179.71875 2370.261719 179.691406 2372.171875 179.679688 C 2373.078125 182.128906 2374.148438 184.550781 2374.988281 187.050781 C 2375.71875 189.28125 2378.03125 189.410156 2380.03125 189.269531 C 2380.449219 189.011719 2381.28125 188.46875 2381.691406 188.210938 C 2379.429688 185.570313 2378.558594 182.121094 2377.28125 178.96875 C 2380.550781 177.609375 2381.769531 174.121094 2381.5 170.808594 C 2380.648438 169.199219 2379.671875 167.671875 2378.300781 166.480469 C 2372.839844 164.761719 2367.058594 165.761719 2361.46875 165.5 M 2366.539063 169.519531 C 2369.628906 169.589844 2372.949219 168.988281 2375.808594 170.570313 C 2375.671875 172.121094 2375.539063 173.671875 2375.398438 175.21875 C 2372.429688 175.601563 2369.449219 175.71875 2366.5 175.691406 C 2366.480469 173.628906 2366.5 171.578125 2366.539063 169.519531 M 2253.089844 232.011719 C 2253.558594 231.308594 2254.050781 230.609375 2254.570313 229.921875 C 2254.148438 239.410156 2249.910156 248.589844 2251.441406 258.191406 C 2254.949219 261.261719 2259.71875 260.308594 2264.011719 260.410156 C 2267.339844 260.390625 2270.699219 260.398438 2274.058594 260.488281 C 2265.480469 307.988281 2256.011719 355.328125 2247.980469 402.929688 C 2239.199219 389.589844 2231.21875 375.71875 2222.78125 362.160156 C 2214.011719 347.921875 2205.378906 333.601563 2196.671875 319.320313 C 2194.601563 315.960938 2192.601563 312.558594 2190.429688 309.28125 C 2190.429688 308.859375 2190.441406 308.03125 2190.441406 307.609375 C 2211.441406 282.511719 2231.980469 257.019531 2253.089844 232.011719 M 1004.128906 265.160156 C 1015.980469 261.308594 1029.140625 261.058594 1040.96875 265.109375 C 1044.839844 266.660156 1048.539063 268.628906 1051.980469 271.011719 C 1052.648438 271.578125 1053.339844 272.160156 1054.050781 272.738281 C 1058.96875 276.808594 1062.519531 282.230469 1065.308594 287.929688 C 1069.148438 297.128906 1070.339844 307.230469 1069.230469 317.109375 C 1068.121094 322.578125 1066.441406 327.921875 1064.308594 333.078125 C 1060.140625 342.648438 1054.03125 351.269531 1046.871094 358.839844 C 1043.960938 361.601563 1040.96875 364.269531 1037.820313 366.75 C 1036.671875 367.558594 1035.539063 368.390625 1034.441406 369.230469 C 1030.789063 371.441406 1027.070313 373.550781 1023.160156 375.25 C 1011.871094 379.640625 999.289063 380.269531 987.421875 378.289063 C 982.910156 377.429688 978.480469 375.949219 974.5 373.660156 C 967.101563 368.871094 962.121094 361.199219 958.710938 353.230469 C 952.101563 338.148438 954.480469 320.671875 961.171875 306.050781 C 966.089844 295.671875 973.25 286.398438 981.839844 278.789063 C 985 275.871094 988.398438 273.210938 991.910156 270.710938 C 995.851563 268.570313 999.859375 266.539063 1004.128906 265.160156 M 743.980469 268.121094 C 757.53125 261.660156 773.761719 260.078125 787.988281 265.199219 C 798.109375 269.210938 806.070313 277.441406 811.339844 286.808594 C 819.191406 302.949219 817.011719 322.359375 808.78125 337.910156 C 808.261719 338.960938 807.738281 340.011719 807.25 341.078125 C 799.140625 354.359375 787.949219 365.960938 774.109375 373.28125 C 769.910156 375.28125 765.578125 376.960938 761.089844 378.191406 C 749.921875 380.179688 738.058594 380.71875 727.230469 376.78125 C 726.101563 376.308594 724.960938 375.839844 723.828125 375.398438 C 715.191406 370.910156 708.871094 362.878906 705.171875 354 C 704.261719 351.730469 703.488281 349.410156 702.820313 347.058594 C 702.53125 345.679688 702.21875 344.308594 701.871094 342.960938 C 701.191406 337.300781 701.308594 331.570313 701.800781 325.898438 C 702.621094 321.828125 703.449219 317.761719 704.71875 313.800781 C 710.238281 297.921875 721.351563 284.601563 734.351563 274.210938 C 737.308594 271.820313 740.558594 269.800781 743.980469 268.121094 M 1909.839844 262.808594 C 1916.21875 262.101563 1922.671875 262.03125 1929.058594 262.808594 C 1941.359375 264.980469 1952.871094 272.019531 1959.320313 282.878906 C 1959.960938 284.179688 1960.640625 285.488281 1961.339844 286.789063 C 1968.199219 302 1967.648438 320.210938 1959.78125 334.949219 C 1950.960938 352.179688 1936.851563 367.109375 1919.191406 375.328125 C 1916.53125 376.359375 1913.859375 377.359375 1911.160156 378.21875 C 1901.511719 379.960938 1891.511719 380.261719 1881.890625 378.210938 C 1878.449219 377.238281 1875.230469 375.730469 1871.988281 374.289063 C 1864.660156 369.519531 1859.089844 362.410156 1855.699219 354.398438 C 1848.570313 339.078125 1851.039063 320.980469 1857.769531 305.988281 C 1861.28125 298.78125 1865.828125 292.121094 1871.058594 286.070313 C 1878.71875 277.859375 1887.359375 270.089844 1898.050781 266.140625 C 1901.839844 264.609375 1905.839844 263.679688 1909.839844 262.808594 M 533.550781 278.519531 C 544.109375 269.78125 557.238281 263.859375 570.980469 262.828125 C 581.46875 262.351563 592.480469 264.539063 600.851563 271.238281 C 605.859375 275.199219 609.761719 280.421875 612.78125 286.011719 C 613.949219 288.789063 614.78125 291.691406 615.53125 294.601563 C 583.949219 294.839844 552.359375 294.609375 520.789063 294.621094 C 523.378906 288.148438 528.5 283.148438 533.550781 278.519531 "/>
<path style=" stroke:none;fill-rule:nonzero;fill:rgb(100%,100%,100%);fill-opacity:1;" d="M 1264.828125 126.839844 C 1269.929688 122.230469 1275.078125 117.660156 1280.679688 113.671875 C 1295.101563 114.070313 1309.441406 116.109375 1323.351563 119.929688 C 1323.378906 120.210938 1323.441406 120.75 1323.480469 121.019531 C 1322.308594 121.390625 1321.171875 121.78125 1320.050781 122.179688 C 1317.730469 123.191406 1315.421875 124.21875 1313.140625 125.28125 C 1312.03125 125.75 1310.929688 126.230469 1309.851563 126.699219 C 1308.269531 127.53125 1306.691406 128.351563 1305.101563 129.140625 C 1303.738281 129.789063 1302.410156 130.46875 1301.089844 131.171875 C 1292.558594 135.730469 1284.261719 140.738281 1276.300781 146.238281 C 1262.21875 155.671875 1250.621094 168.53125 1241.789063 182.949219 C 1239.648438 186.859375 1237.480469 190.761719 1235.730469 194.871094 C 1227.46875 213.949219 1224.578125 236.101563 1231.421875 256.058594 C 1235.640625 269.019531 1244.210938 280.519531 1255.550781 288.109375 C 1253.851563 285.859375 1252.78125 283.199219 1250.941406 281.058594 C 1246.621094 276.03125 1243.238281 270.230469 1240.738281 264.101563 C 1240.089844 262.140625 1239.421875 260.179688 1238.769531 258.230469 C 1234.929688 243.96875 1236.03125 228.71875 1240.78125 214.808594 C 1244.121094 205.539063 1248.871094 196.820313 1254.691406 188.878906 C 1266.429688 173.359375 1282.308594 161.050781 1300.078125 153.171875 C 1301.75 152.46875 1303.449219 151.808594 1305.160156 151.160156 C 1316.230469 147.011719 1327.589844 143.511719 1339.199219 141.191406 L 1339.800781 140.800781 C 1347.25 139.730469 1354.601563 137.710938 1362.160156 137.429688 C 1372.808594 144.378906 1382.96875 152.160156 1391.769531 161.398438 C 1392.160156 161.699219 1392.949219 162.300781 1393.351563 162.601563 C 1387.871094 162.941406 1382.53125 161.421875 1377.078125 161.398438 C 1365.410156 160.378906 1353.640625 160.238281 1341.980469 161.328125 C 1329.339844 161.710938 1316.859375 164.558594 1305.109375 169.199219 C 1303.019531 170 1300.960938 170.890625 1298.921875 171.769531 C 1297.28125 172.570313 1295.648438 173.371094 1294.039063 174.179688 C 1275.769531 183.589844 1259.871094 198.261719 1250.761719 216.859375 C 1249.769531 219.210938 1248.75 221.550781 1247.75 223.898438 C 1245.871094 229.128906 1244.710938 234.550781 1243.859375 240.039063 C 1242.960938 249.429688 1243.941406 259.011719 1247.191406 267.890625 C 1247.949219 269.890625 1248.699219 271.898438 1249.441406 273.929688 C 1249.390625 270.949219 1249.808594 267.960938 1249.261719 265.011719 C 1247.199219 253.640625 1248.769531 241.769531 1253.128906 231.101563 C 1256.601563 222.851563 1261.578125 215.210938 1267.890625 208.851563 C 1268.710938 208.019531 1269.511719 207.179688 1270.351563 206.351563 C 1271.171875 205.550781 1272.019531 204.75 1272.859375 203.929688 C 1278.390625 199.011719 1284.539063 194.800781 1291.058594 191.28125 C 1294.261719 189.640625 1297.558594 188.210938 1300.839844 186.730469 C 1320.511719 179.191406 1342.25 176.589844 1363.019531 180.460938 C 1367.078125 181.121094 1371.089844 182.078125 1375.148438 182.839844 C 1382.761719 184.75 1390.421875 186.578125 1397.839844 189.179688 C 1403.039063 190.761719 1408.089844 192.789063 1413.148438 194.769531 C 1414.738281 195.449219 1416.371094 196.140625 1417.980469 196.839844 C 1421.160156 203.480469 1424.421875 210.101563 1426.808594 217.078125 C 1429.039063 224.101563 1432.179688 231.140625 1432.359375 238.589844 C 1432.128906 238.140625 1431.660156 237.21875 1431.429688 236.769531 C 1420.71875 228.828125 1409.710938 221.238281 1397.988281 214.859375 C 1395.351563 213.5 1392.730469 212.128906 1390.121094 210.75 C 1389.019531 210.261719 1387.949219 209.761719 1386.890625 209.269531 C 1383.738281 207.558594 1380.421875 206.21875 1377.171875 204.761719 C 1375.46875 204.109375 1373.761719 203.46875 1372.078125 202.828125 C 1350.5 195.910156 1326.859375 194.441406 1305.03125 201.101563 C 1289.628906 205.699219 1275.289063 214.511719 1265.210938 227.140625 C 1260.699219 232.75 1257.328125 239.171875 1254.800781 245.890625 C 1253.679688 250.109375 1252.148438 254.300781 1252.398438 258.761719 C 1252.910156 257.210938 1253.929688 254.101563 1254.429688 252.550781 C 1254.449219 253.398438 1254.480469 255.101563 1254.488281 255.949219 C 1258.199219 246.328125 1263.539063 237.179688 1271.070313 230.050781 C 1277.179688 224.449219 1284.289063 220.019531 1291.871094 216.691406 C 1316.539063 206.550781 1344.980469 209.121094 1369.050781 219.75 C 1369.550781 219.988281 1370.550781 220.460938 1371.050781 220.699219 C 1373.078125 221.730469 1375.121094 222.730469 1377.191406 223.699219 C 1378.078125 224.210938 1378.980469 224.730469 1379.898438 225.25 C 1395.28125 233.789063 1407.789063 246.488281 1419.949219 259 C 1424.648438 264.070313 1429.078125 269.390625 1433.359375 274.828125 C 1434.449219 276.410156 1436.078125 277.878906 1435.828125 280 C 1435.859375 290.550781 1433.671875 300.960938 1431.128906 311.148438 C 1430.601563 312.96875 1430.21875 314.828125 1429.980469 316.710938 C 1429.699219 316.03125 1429.128906 314.671875 1428.851563 313.988281 C 1427.769531 311.71875 1426.789063 309.421875 1425.789063 307.121094 C 1423.238281 301.238281 1420.320313 295.539063 1417.21875 289.941406 C 1411.421875 279.328125 1404.828125 269.160156 1397.421875 259.621094 C 1387.238281 247.871094 1375.058594 237.789063 1361.199219 230.691406 C 1357.800781 229.121094 1354.441406 227.460938 1350.910156 226.21875 C 1349.648438 225.730469 1348.378906 225.238281 1347.171875 224.75 C 1330.980469 219.390625 1313.269531 218.019531 1296.769531 222.769531 C 1283.878906 226.519531 1272.300781 234.359375 1264.039063 244.929688 C 1266.449219 244.300781 1268.921875 243.53125 1270.839844 241.839844 C 1277.289063 236.628906 1284.929688 233.070313 1292.871094 230.808594 C 1314.390625 225.199219 1337.53125 231.101563 1355.828125 243.078125 C 1375.511719 256.050781 1390.988281 275.5 1399.089844 297.640625 L 1397.46875 298.328125 C 1398.691406 298.910156 1399.460938 297.871094 1400.128906 296.960938 C 1399.03125 299 1400.421875 300.980469 1401.210938 302.839844 C 1403.628906 309.820313 1406.011719 316.820313 1408.171875 323.890625 C 1412.078125 337.03125 1414.96875 350.480469 1416.730469 364.078125 C 1420.578125 361.148438 1423.128906 356.949219 1426.46875 353.5 C 1459.890625 314.921875 1493.300781 276.320313 1526.730469 237.75 C 1558.738281 200.769531 1590.75 163.789063 1622.769531 126.820313 C 1625.980469 122.96875 1629.378906 119.28125 1632.71875 115.539063 C 1648.898438 115.269531 1665.089844 115.421875 1681.28125 115.460938 C 1682.351563 116.398438 1683.921875 117.25 1683.78125 118.960938 C 1684.121094 124.03125 1682.761719 129 1681.941406 133.96875 C 1679.53125 149.441406 1676.511719 164.808594 1674.21875 180.289063 L 1673.820313 180.871094 C 1673.210938 186.339844 1672.03125 191.71875 1671.171875 197.148438 C 1666.511719 223.328125 1662.011719 249.539063 1657.019531 275.671875 C 1655.28125 285.691406 1652.75 295.570313 1651.21875 305.621094 C 1650.929688 306.160156 1650.339844 307.25 1650.039063 307.800781 C 1655.390625 302.519531 1659.671875 296.28125 1664.519531 290.558594 C 1690.921875 257.238281 1716.808594 223.519531 1742.75 189.828125 C 1746.078125 185.488281 1749.410156 181.148438 1752.71875 176.789063 C 1768.53125 156.449219 1783.851563 135.71875 1799.851563 115.519531 C 1814.25 115.261719 1828.660156 115.519531 1843.058594 115.351563 C 1844.988281 115.191406 1846.828125 115.851563 1848.578125 116.660156 C 1849.660156 123.941406 1846.808594 130.941406 1846.140625 138.109375 L 1845.769531 138.761719 C 1842.390625 157.941406 1838.679688 177.050781 1835.171875 196.199219 C 1832.851563 208.851563 1830.359375 221.46875 1828.160156 234.128906 C 1825.328125 248.71875 1822.699219 263.339844 1819.921875 277.929688 C 1819.039063 282.261719 1818.570313 286.671875 1817.550781 290.96875 C 1818.25 289.261719 1819 287.570313 1819.800781 285.890625 C 1832.53125 260.859375 1852.980469 239.78125 1877.871094 226.710938 C 1878.929688 226.21875 1880.019531 225.71875 1881.140625 225.230469 C 1901.539063 215.351563 1925.308594 212.648438 1947.398438 217.621094 C 1953.800781 219.96875 1960.128906 222.621094 1966.011719 226.128906 C 1969.628906 228.070313 1972.46875 231.191406 1976.179688 233.011719 C 1977.121094 228.839844 1977.75 224.609375 1978.890625 220.488281 C 1980.28125 216.878906 1984.738281 216.839844 1988 216.820313 C 1997.691406 217.089844 2007.410156 216.621094 2017.078125 217.058594 C 2020.828125 216.929688 2023.429688 220.589844 2022.570313 224.148438 C 2019.859375 240.839844 2017.128906 257.53125 2014.148438 274.171875 C 2013.398438 277.5 2012.75 280.851563 2012.179688 284.210938 C 2008.730469 302.441406 2005.359375 320.691406 2001.859375 338.910156 C 1999.398438 352.71875 1996.449219 366.449219 1994.230469 380.308594 L 1993.828125 380.890625 C 1992.328125 391.390625 1989.730469 401.710938 1988.199219 412.210938 L 1987.851563 412.839844 C 1987.601563 415.039063 1986.988281 417.160156 1986.191406 419.210938 C 1984.171875 419.878906 1982.101563 420.519531 1979.96875 420.421875 C 1968.910156 420.410156 1957.851563 420.410156 1946.800781 420.410156 C 1941.058594 418.050781 1944.128906 411.171875 1944.519531 406.609375 C 1943.828125 407.621094 1943.011719 408.390625 1941.871094 408.769531 C 1936.699219 411.75 1931.378906 414.46875 1925.910156 416.828125 C 1923.96875 417.628906 1922.019531 418.410156 1920.109375 419.230469 C 1908.550781 423.410156 1896.339844 426.238281 1883.988281 425.839844 C 1874.71875 426.128906 1865.398438 424.808594 1856.808594 421.269531 C 1848.429688 417.511719 1840.390625 412.648438 1833.910156 406.101563 C 1821.359375 394.800781 1812.160156 379.539063 1808.929688 362.898438 C 1808.121094 358.621094 1808.441406 354.238281 1808.828125 349.941406 C 1809.78125 345.128906 1810.519531 340.179688 1810.089844 335.28125 C 1809.730469 337.539063 1809.5 339.820313 1809.210938 342.089844 C 1808.710938 343.738281 1808.410156 345.441406 1808.179688 347.140625 C 1806.371094 356.789063 1804.550781 366.449219 1803.21875 376.179688 L 1802.808594 376.820313 C 1801.339844 386.890625 1799.378906 396.878906 1797.761719 406.929688 C 1797.011719 411.050781 1796.449219 415.21875 1795.210938 419.21875 C 1791.671875 420.878906 1787.71875 420.371094 1783.960938 420.421875 C 1775.648438 420.410156 1767.339844 420.398438 1759.039063 420.421875 C 1755.820313 420.398438 1752.511719 420.730469 1749.460938 419.539063 L 1749.289063 418.949219 C 1747.769531 417.25 1748.109375 414.898438 1748.390625 412.859375 C 1755 378.929688 1761.28125 344.921875 1766.808594 310.800781 L 1767.210938 310.199219 C 1771.339844 284.039063 1776.089844 257.96875 1780.871094 231.929688 C 1781.699219 227.128906 1783.089844 222.410156 1783.398438 217.53125 C 1782.96875 218.359375 1782.570313 219.191406 1782.179688 220.03125 C 1779.371094 222.300781 1777.609375 225.519531 1775.269531 228.210938 C 1767.171875 238.460938 1759.199219 248.808594 1751.25 259.171875 C 1741.351563 272.039063 1731.558594 284.980469 1721.679688 297.851563 C 1720.871094 298.929688 1720.078125 300.011719 1719.320313 301.101563 C 1703.5 321.691406 1687.910156 342.46875 1672.238281 363.179688 C 1658.148438 381.828125 1644.078125 400.480469 1630.070313 419.191406 C 1629.578125 419.460938 1628.589844 420.011719 1628.089844 420.289063 C 1615.738281 420.421875 1603.390625 420.21875 1591.050781 420.441406 C 1588.578125 420.558594 1586.148438 420.230469 1583.898438 419.28125 C 1583.578125 418.710938 1582.941406 417.578125 1582.621094 417.019531 C 1583.96875 406.980469 1586.351563 397.089844 1588.160156 387.121094 C 1589.589844 378.328125 1591.609375 369.648438 1592.820313 360.820313 L 1593.210938 360.21875 C 1595.878906 343.429688 1599.199219 326.738281 1601.941406 309.960938 C 1602.75 306 1603.300781 301.988281 1604.109375 298.03125 C 1604.359375 296.328125 1604.578125 294.628906 1604.851563 292.929688 C 1606.328125 285.261719 1607.679688 277.558594 1608.808594 269.828125 L 1609.210938 269.179688 C 1611.558594 252 1615.601563 235.070313 1617.800781 217.871094 C 1606.21875 231.871094 1593.570313 244.949219 1581.449219 258.480469 C 1572.039063 268.710938 1562.699219 279 1553.199219 289.148438 C 1552.980469 289.421875 1552.519531 289.96875 1552.289063 290.238281 C 1536.53125 307.171875 1521.011719 324.308594 1505.128906 341.128906 C 1485.871094 362.210938 1466.289063 383 1446.960938 404.011719 C 1441.660156 409.039063 1437.359375 415.058594 1431.878906 419.898438 C 1426.699219 420.859375 1421.289063 420.078125 1416.03125 420.328125 C 1403.339844 420.308594 1390.648438 420.378906 1377.96875 420.289063 C 1377.441406 420.050781 1376.390625 419.558594 1375.859375 419.308594 C 1375.539063 418.78125 1374.890625 417.710938 1374.570313 417.171875 C 1374.550781 416.039063 1374.539063 414.921875 1374.570313 413.800781 C 1377.261719 409.308594 1380.089844 404.878906 1382.269531 400.109375 C 1386.140625 391.25 1388.210938 381.691406 1388.578125 372.050781 C 1390.058594 355.71875 1388.871094 339.191406 1385.910156 323.089844 C 1384.25 314.578125 1382.128906 306.128906 1378.828125 298.101563 C 1378.148438 296.410156 1377.46875 294.738281 1376.75 293.089844 C 1376.25 292.019531 1375.75 290.949219 1375.300781 289.878906 C 1371.898438 283.390625 1368.230469 277.011719 1363.78125 271.179688 C 1362.140625 269.140625 1360.410156 267.191406 1358.738281 265.199219 C 1350.289063 255.640625 1339.78125 247.820313 1328.089844 242.691406 C 1320.121094 239.390625 1311.648438 237.261719 1303 237.011719 C 1298.050781 237.261719 1293.03125 237.101563 1288.199219 238.308594 C 1284.441406 239.109375 1280.859375 240.648438 1277.03125 241.078125 C 1278.671875 241.421875 1280.28125 241.851563 1281.898438 242.359375 C 1287.300781 242.488281 1292.660156 241.011719 1298.058594 241.929688 C 1314.609375 243.300781 1330.230469 251.441406 1341.558594 263.449219 C 1348.191406 269.960938 1353.429688 277.769531 1357.699219 286 C 1368.671875 308.039063 1372.058594 333.738281 1367.449219 357.890625 C 1364.828125 373 1360.539063 387.761719 1355.238281 402.140625 C 1354.519531 403.789063 1353.828125 405.460938 1353.148438 407.128906 C 1352.769531 408.148438 1352.429688 409.179688 1352.109375 410.21875 C 1342.300781 415.628906 1331.71875 419.570313 1320.96875 422.679688 C 1318.53125 423.46875 1315.949219 423.761719 1313.441406 424 C 1317.050781 417.609375 1322.078125 412.148438 1325.871094 405.851563 C 1332.25 395.949219 1338.019531 385.628906 1342.878906 374.890625 C 1344.050781 372.308594 1345.160156 369.691406 1346.25 367.078125 C 1355.449219 341.378906 1356.25 312.109375 1345.269531 286.820313 C 1337.738281 269.621094 1324.128906 254.511719 1306.328125 247.75 C 1300.648438 245.789063 1294.699219 243.761719 1288.609375 244.550781 C 1290.058594 245.03125 1291.558594 245.550781 1292.941406 246.300781 C 1300.480469 249.109375 1307.851563 252.550781 1314.128906 257.691406 C 1323.25 265.039063 1329.828125 275.121094 1334.238281 285.890625 C 1343.148438 309.429688 1340.851563 336.078125 1331.308594 359.070313 C 1328.429688 365.671875 1325.128906 372.089844 1321.25 378.160156 C 1320.410156 379.378906 1319.570313 380.609375 1318.75 381.839844 C 1307.539063 396.421875 1294.550781 409.640625 1280.390625 421.359375 C 1277.359375 423.648438 1274.609375 426.359375 1271.261719 428.191406 C 1256.871094 427.410156 1242.570313 424.761719 1228.941406 420.050781 C 1230.660156 419.488281 1232.371094 418.851563 1234.070313 418.179688 C 1238 416.378906 1242 414.710938 1245.859375 412.75 C 1246.929688 412.230469 1248.011719 411.71875 1249.109375 411.21875 C 1250.398438 410.519531 1251.710938 409.839844 1253.050781 409.171875 C 1270.949219 399.199219 1289.230469 388.429688 1302.058594 372.050781 C 1308.890625 363.878906 1314.519531 354.730469 1318.839844 345 C 1319.511719 343.308594 1320.171875 341.609375 1320.820313 339.910156 C 1323.339844 333.171875 1325.011719 326.160156 1326.121094 319.070313 C 1327.511719 306.300781 1326.691406 293.109375 1321.921875 281.070313 C 1317.679688 269.738281 1309.78125 260.171875 1300.28125 252.800781 C 1301.320313 254.109375 1302.261719 255.519531 1302.78125 257.148438 C 1305.460938 262.300781 1309.589844 266.601563 1311.851563 272.011719 C 1321.480469 292.179688 1318.898438 316.359375 1309.179688 336.011719 C 1303.648438 346.949219 1296.070313 356.769531 1287.171875 365.171875 C 1279.691406 372.339844 1271.101563 378.25 1262.078125 383.289063 C 1260.378906 384.140625 1258.691406 384.988281 1257.011719 385.851563 C 1254.691406 386.890625 1252.351563 387.871094 1249.980469 388.761719 C 1248.691406 389.261719 1247.390625 389.75 1246.148438 390.25 C 1230.871094 395.691406 1215.078125 399.578125 1199.078125 402.171875 C 1196.980469 402.410156 1194.878906 402.53125 1192.789063 402.589844 C 1185.359375 397.300781 1177.910156 391.941406 1171.410156 385.511719 C 1169.191406 383.390625 1167.160156 381.011719 1164.429688 379.53125 C 1170.320313 379.070313 1176.101563 380.691406 1181.988281 380.609375 C 1187.019531 380.589844 1192.011719 381.339844 1197.039063 381.230469 C 1209.019531 380.480469 1221.171875 380.738281 1232.921875 377.890625 C 1239.390625 376.328125 1245.761719 374.300781 1251.949219 371.820313 C 1254.320313 370.871094 1256.628906 369.769531 1258.898438 368.558594 C 1259.148438 368.511719 1259.660156 368.398438 1259.910156 368.351563 C 1260.570313 367.921875 1261.238281 367.5 1261.941406 367.101563 C 1269.261719 363.378906 1276 358.589844 1282.238281 353.28125 C 1290.328125 346.53125 1296.878906 338.121094 1302.21875 329.089844 C 1302.871094 327.761719 1303.570313 326.441406 1304.28125 325.140625 C 1310.070313 313.140625 1312.890625 299.5 1311.03125 286.230469 C 1310.398438 280.800781 1308.460938 275.691406 1307.019531 270.460938 C 1306.71875 270.511719 1306.121094 270.609375 1305.808594 270.671875 C 1305.351563 275.5 1306.78125 280.21875 1306.671875 285.050781 C 1307.46875 303.390625 1299.128906 321.449219 1286.078125 334.078125 C 1278.289063 342.398438 1268.46875 348.539063 1258.21875 353.339844 C 1250.160156 356.871094 1241.699219 359.398438 1233.078125 361.109375 C 1221.820313 363.03125 1210.308594 363.398438 1198.949219 362.320313 C 1183.011719 360.03125 1167.289063 356.160156 1152.109375 350.800781 C 1151.070313 350.449219 1150.058594 350.109375 1149.058594 349.75 C 1146.261719 348.730469 1143.519531 347.589844 1140.859375 346.289063 C 1140.328125 345.128906 1139.800781 343.988281 1139.28125 342.851563 C 1136.53125 337.699219 1134.21875 332.328125 1132.179688 326.859375 C 1129.851563 320.238281 1127.21875 313.601563 1126.339844 306.601563 C 1140.089844 317.410156 1155.230469 326.488281 1171.101563 333.828125 C 1173.660156 335.050781 1176.269531 336.179688 1178.878906 337.328125 C 1203.761719 346.578125 1232.109375 347.839844 1257.089844 338.28125 C 1263.339844 335.730469 1269.378906 332.628906 1274.910156 328.71875 C 1275.96875 327.910156 1277.058594 327.109375 1278.160156 326.320313 C 1286.058594 320.039063 1292.769531 312.21875 1297.300781 303.160156 C 1299.949219 296.820313 1303.070313 290.179688 1302.359375 283.140625 C 1301.941406 284.378906 1301.558594 285.640625 1301.179688 286.898438 C 1300.46875 287.589844 1299.769531 288.289063 1299.109375 289.011719 C 1293.859375 303.480469 1282.578125 315.210938 1269.070313 322.339844 C 1268.03125 322.808594 1267.011719 323.28125 1266 323.761719 C 1244.238281 333.980469 1218.601563 333.449219 1196.109375 325.828125 C 1195.121094 325.488281 1194.140625 325.140625 1193.171875 324.800781 C 1181.710938 320.460938 1170.539063 314.828125 1161.191406 306.808594 C 1146.339844 294.359375 1132 281.179688 1119.480469 266.359375 C 1119.089844 266.421875 1118.320313 266.53125 1117.929688 266.589844 C 1117.019531 275.660156 1114.761719 284.53125 1113.320313 293.519531 C 1108.78125 317.660156 1104.460938 341.839844 1099.929688 365.980469 C 1098.839844 373.089844 1097.128906 380.089844 1096.191406 387.21875 L 1095.808594 387.828125 C 1094.898438 394.441406 1093.480469 400.980469 1092.289063 407.550781 C 1091.5 411.519531 1091.238281 415.691406 1089.308594 419.328125 C 1085.03125 420.808594 1080.46875 420.238281 1076.039063 420.328125 C 1068.351563 420.308594 1060.660156 420.371094 1052.96875 420.328125 C 1050.359375 420.359375 1047.101563 419.109375 1046.660156 416.210938 C 1046.53125 413.128906 1047.570313 410.140625 1047.601563 407.058594 C 1044.328125 409.519531 1040.621094 411.269531 1037.078125 413.28125 C 1036 413.761719 1034.941406 414.25 1033.898438 414.75 C 1030.410156 416.46875 1026.808594 417.929688 1023.171875 419.300781 C 1010.699219 423.988281 997.328125 426.5 983.988281 425.820313 C 976.789063 425.859375 969.621094 424.710938 962.851563 422.28125 C 960.460938 421.328125 958.121094 420.320313 955.808594 419.25 C 954.539063 418.558594 953.25 417.871094 952 417.210938 C 937.859375 408.96875 926.269531 396.53125 918.839844 381.96875 C 911.839844 368.890625 910.761719 353.808594 910.078125 339.28125 C 905.648438 361.800781 901.820313 384.429688 897.648438 406.988281 C 896.71875 411.191406 896.949219 415.871094 894.25 419.460938 C 889.96875 420.800781 885.46875 420.230469 881.070313 420.328125 C 871.308594 420.238281 861.550781 420.511719 851.789063 420.351563 C 851.289063 420.058594 850.300781 419.480469 849.800781 419.199219 C 849.449219 418.671875 848.75 417.621094 848.398438 417.089844 C 848.28125 414.058594 848.75 411.070313 849.390625 408.121094 C 853.570313 385.070313 857.859375 362.039063 862.078125 339 C 866.421875 315.351563 870.671875 291.691406 875.109375 268.058594 C 877.910156 252.351563 880.800781 236.648438 883.769531 220.96875 C 884.03125 220.449219 884.550781 219.398438 884.808594 218.878906 C 886.621094 217.628906 888.628906 216.441406 890.941406 216.691406 C 901.980469 216.648438 913.011719 216.691406 924.050781 216.671875 C 926.558594 216.539063 929.328125 217.519531 930.570313 219.851563 C 931.121094 222.558594 930.878906 225.371094 930.519531 228.101563 C 926.371094 250.410156 922.199219 272.730469 918.050781 295.050781 C 917.589844 297.140625 917.660156 299.28125 917.730469 301.410156 C 918.089844 299.390625 918.371094 297.351563 918.628906 295.308594 L 919.371094 295.429688 C 928.910156 269.890625 947.671875 248.339844 970.140625 233.199219 C 976.339844 229.039063 983.03125 225.691406 989.851563 222.691406 C 994.78125 220.808594 999.789063 219.148438 1004.898438 217.808594 C 1018.328125 214.679688 1032.410156 214.351563 1045.988281 216.789063 C 1049.019531 217.320313 1052.03125 218.070313 1054.871094 219.300781 C 1055.179688 219.371094 1055.789063 219.511719 1056.101563 219.578125 C 1058.371094 220.699219 1060.679688 221.769531 1063.019531 222.769531 C 1063.699219 223.109375 1064.398438 223.449219 1065.109375 223.789063 C 1069.820313 226.039063 1073.910156 229.289063 1078.308594 232.070313 C 1079.351563 227.820313 1079.808594 223.140625 1082.449219 219.511719 C 1084.128906 217.109375 1087.269531 216.789063 1089.96875 216.761719 C 1099.328125 216.761719 1108.679688 216.769531 1118.050781 216.738281 C 1120.910156 216.71875 1124.410156 217.179688 1125.980469 219.941406 C 1127.410156 222.460938 1128.191406 225.269531 1129.238281 227.960938 C 1130.960938 232.398438 1132.949219 236.730469 1134.910156 241.070313 C 1137.410156 246.089844 1140.03125 251.050781 1142.660156 256.011719 C 1143.828125 258 1144.988281 259.988281 1146.191406 261.96875 C 1151.921875 271.578125 1157.710938 281.359375 1165.808594 289.199219 C 1174.109375 297.519531 1183.570313 304.660156 1193.949219 310.191406 C 1197.28125 311.808594 1200.609375 313.460938 1204.050781 314.859375 C 1221.578125 321.851563 1241.449219 324.128906 1259.738281 318.789063 C 1262.929688 317.808594 1266.078125 316.671875 1269.160156 315.351563 C 1278.730469 310.648438 1287.628906 303.949219 1293.550781 294.980469 C 1293.398438 294.628906 1293.101563 293.921875 1292.949219 293.570313 L 1292.53125 295.148438 C 1288.898438 296.21875 1286.648438 299.558594 1283.511719 301.480469 C 1266.21875 314.128906 1242.859375 315.558594 1222.871094 309.191406 C 1219.511719 307.941406 1216.160156 306.671875 1212.871094 305.269531 C 1212.371094 305.019531 1211.378906 304.53125 1210.890625 304.289063 C 1209.929688 303.789063 1208.988281 303.300781 1208.058594 302.820313 C 1204.621094 301.011719 1201.351563 298.910156 1198.121094 296.789063 C 1182.570313 285.988281 1170.300781 270.929688 1161.671875 254.160156 C 1161.03125 252.800781 1160.410156 251.441406 1159.789063 250.078125 C 1159.109375 248.398438 1158.429688 246.730469 1157.75 245.058594 C 1155.148438 238.160156 1152.898438 231.128906 1150.800781 224.058594 C 1149.121094 217.320313 1147.191406 210.601563 1146.210938 203.710938 L 1145.820313 203.128906 C 1145.75 197.878906 1142.230469 191.761719 1146.160156 187.171875 C 1152.320313 177.601563 1159.300781 168.5 1167.421875 160.511719 C 1168.589844 159.28125 1169.621094 157.941406 1170.511719 156.480469 C 1170.621094 158.601563 1170.808594 160.738281 1170.578125 162.859375 C 1168.851563 175.480469 1169.121094 188.28125 1169.378906 200.988281 C 1169.691406 216.738281 1172.730469 232.519531 1179.171875 246.949219 C 1180.878906 251.078125 1182.949219 255.058594 1185.21875 258.921875 C 1187.371094 262.859375 1189.949219 266.53125 1192.628906 270.128906 C 1201.421875 281.78125 1212.808594 291.558594 1226.050781 297.789063 C 1242.210938 305.71875 1261.53125 306.898438 1278.378906 300.410156 C 1278.398438 300.210938 1278.441406 299.828125 1278.460938 299.640625 C 1279.699219 299.390625 1280.980469 299.140625 1282.25 298.878906 C 1279.5 298.738281 1276.738281 298.71875 1274.011719 298.859375 C 1265.730469 300.300781 1257.101563 300.101563 1248.921875 298.160156 C 1242.640625 296.570313 1236.570313 294.160156 1231.011719 290.851563 C 1218.519531 283.5 1208.359375 272.460938 1201.238281 259.898438 C 1199.601563 257.019531 1198.140625 254.039063 1196.710938 251.058594 C 1194 244.511719 1191.429688 237.828125 1190.140625 230.839844 L 1189.769531 230.238281 C 1186.878906 215.328125 1186.21875 199.890625 1188.851563 184.890625 C 1190.519531 176.148438 1192.480469 167.46875 1194.871094 158.890625 C 1197.46875 150.078125 1200.660156 141.46875 1203.898438 132.878906 C 1205.648438 132.011719 1207.371094 131.121094 1209.128906 130.230469 C 1212.070313 128.808594 1215.050781 127.480469 1218.050781 126.171875 C 1225.128906 123.589844 1232.121094 120.191406 1239.691406 119.429688 C 1239.25 119.761719 1238.359375 120.429688 1237.910156 120.769531 C 1227.449219 135.261719 1218 150.539063 1210.769531 166.921875 C 1207.839844 173.441406 1205.5 180.261719 1204.199219 187.289063 L 1203.828125 187.878906 C 1200.441406 204.109375 1200.160156 221.078125 1203.761719 237.300781 L 1204.121094 237.871094 C 1208.960938 259.640625 1222.648438 280.109375 1242.921875 290.230469 C 1250.210938 293.71875 1258.089844 295.691406 1266.140625 296.320313 C 1262.359375 294.621094 1258.878906 292.261719 1254.808594 291.269531 C 1247.890625 288.269531 1241.671875 283.910156 1236.121094 278.839844 C 1229.210938 271.699219 1223.519531 263.308594 1220.140625 253.929688 C 1213.589844 237.121094 1213.171875 218.410156 1216.871094 200.890625 C 1217.191406 199.570313 1217.511719 198.238281 1217.828125 196.910156 C 1219.25 191.488281 1221.039063 186.171875 1223.199219 181 C 1227.640625 170.519531 1233.371094 160.519531 1240.789063 151.851563 C 1248.261719 143.019531 1256.050781 134.390625 1264.828125 126.839844 M 1004.128906 265.160156 C 999.859375 266.539063 995.851563 268.570313 991.910156 270.710938 C 988.398438 273.210938 985 275.871094 981.839844 278.789063 C 973.25 286.398438 966.089844 295.671875 961.171875 306.050781 C 954.480469 320.671875 952.101563 338.148438 958.710938 353.230469 C 962.121094 361.199219 967.101563 368.871094 974.5 373.660156 C 978.480469 375.949219 982.910156 377.429688 987.421875 378.289063 C 999.289063 380.269531 1011.871094 379.640625 1023.160156 375.25 C 1027.070313 373.550781 1030.789063 371.441406 1034.441406 369.230469 C 1035.539063 368.390625 1036.671875 367.558594 1037.820313 366.75 C 1040.96875 364.269531 1043.960938 361.601563 1046.871094 358.839844 C 1054.03125 351.269531 1060.140625 342.648438 1064.308594 333.078125 C 1066.441406 327.921875 1068.121094 322.578125 1069.230469 317.109375 C 1070.339844 307.230469 1069.148438 297.128906 1065.308594 287.929688 C 1062.519531 282.230469 1058.96875 276.808594 1054.050781 272.738281 C 1053.339844 272.160156 1052.648438 271.578125 1051.980469 271.011719 C 1048.539063 268.628906 1044.839844 266.660156 1040.96875 265.109375 C 1029.140625 261.058594 1015.980469 261.308594 1004.128906 265.160156 M 1909.839844 262.808594 C 1905.839844 263.679688 1901.839844 264.609375 1898.050781 266.140625 C 1887.359375 270.089844 1878.71875 277.859375 1871.058594 286.070313 C 1865.828125 292.121094 1861.28125 298.78125 1857.769531 305.988281 C 1851.039063 320.980469 1848.570313 339.078125 1855.699219 354.398438 C 1859.089844 362.410156 1864.660156 369.519531 1871.988281 374.289063 C 1875.230469 375.730469 1878.449219 377.238281 1881.890625 378.210938 C 1891.511719 380.261719 1901.511719 379.960938 1911.160156 378.21875 C 1913.859375 377.359375 1916.53125 376.359375 1919.191406 375.328125 C 1936.851563 367.109375 1950.960938 352.179688 1959.78125 334.949219 C 1967.648438 320.210938 1968.199219 302 1961.339844 286.789063 C 1960.640625 285.488281 1959.960938 284.179688 1959.320313 282.878906 C 1952.871094 272.019531 1941.359375 264.980469 1929.058594 262.808594 C 1922.671875 262.03125 1916.21875 262.101563 1909.839844 262.808594 M 288.941406 115.78125 C 290.578125 115.339844 292.308594 115.449219 294 115.398438 C 307.089844 115.429688 320.179688 115.351563 333.269531 115.449219 C 336.480469 117.210938 335.941406 121.078125 335.441406 124.121094 C 329.480469 157.359375 323.859375 190.671875 317.851563 223.898438 C 313.640625 247.910156 309.339844 271.898438 304.851563 295.851563 C 304.039063 299.628906 303.191406 303.421875 303.300781 307.328125 C 308.28125 300.359375 313.988281 293.941406 319.28125 287.199219 C 320.410156 285.730469 321.589844 284.289063 322.730469 282.839844 C 361.839844 233.5 400.269531 183.640625 438.738281 133.808594 C 443.800781 127.789063 447.839844 120.851563 453.601563 115.449219 C 468.550781 115.371094 483.5 115.390625 498.449219 115.441406 C 500.070313 116.898438 502.179688 118.589844 501.308594 121.089844 C 491.5 174.78125 481.628906 228.46875 471.851563 282.171875 C 471.699219 283.648438 471.671875 285.140625 471.75 286.628906 C 472.070313 285.261719 472.339844 283.878906 472.621094 282.511719 L 473.28125 282.460938 C 485.171875 260.449219 504.21875 242.769531 526.011719 230.730469 C 527.289063 230.058594 528.589844 229.398438 529.878906 228.730469 C 534.859375 226.300781 539.921875 224.019531 545.160156 222.191406 C 551.609375 219.898438 558.261719 218.230469 564.96875 216.859375 C 575.078125 214.898438 585.46875 215.648438 595.578125 217.179688 C 610.210938 219.5 624.441406 225.519531 635.628906 235.339844 C 642.351563 240.71875 647.570313 247.710938 652.308594 254.839844 C 652.808594 255.910156 653.320313 256.980469 653.828125 258.070313 C 656.550781 263.75 658.511719 269.769531 660.230469 275.828125 C 662.480469 283.929688 663.328125 292.300781 664.28125 300.621094 C 664.351563 299.839844 664.511719 298.28125 664.578125 297.5 L 665.320313 297.46875 C 666.441406 293.808594 668.191406 290.378906 669.699219 286.878906 C 670.570313 285.28125 671.429688 283.691406 672.25 282.070313 C 675.480469 276.121094 679.171875 270.410156 683.320313 265.058594 C 691.21875 254.789063 700.578125 245.648438 710.828125 237.738281 C 718.679688 232 727.070313 226.960938 736.070313 223.21875 C 737.75 222.53125 739.441406 221.871094 741.160156 221.238281 C 757.96875 215.089844 776.398438 213.691406 794 216.769531 C 796.730469 217.21875 799.429688 217.949219 801.960938 219.121094 C 804.660156 220.359375 807.390625 221.539063 810.128906 222.738281 C 811.699219 223.589844 813.289063 224.441406 814.910156 225.25 C 818.960938 226.851563 821.761719 230.871094 826.03125 231.800781 C 827.609375 220.058594 830.820313 208.609375 832.871094 196.960938 C 835.640625 184.621094 837.890625 172.179688 840.730469 159.859375 C 842.441406 158.269531 844.351563 156.5 846.898438 156.769531 C 857.671875 156.648438 868.449219 156.890625 879.230469 156.691406 C 883.351563 157.75 885.601563 162 884.121094 166.03125 C 880.648438 184.339844 877.371094 202.691406 873.921875 221 C 868.730469 249.710938 863.148438 278.371094 858.171875 307.121094 L 857.78125 307.710938 C 856.230469 318.230469 853.871094 328.621094 852.171875 339.121094 C 847.050781 365.460938 842.578125 391.929688 837.339844 418.25 C 835.710938 419.148438 834.109375 420.410156 832.160156 420.300781 C 821.769531 420.378906 811.378906 420.28125 800.988281 420.429688 C 798.78125 420.558594 796.679688 419.921875 794.628906 419.21875 C 793.609375 415.191406 794.789063 411.109375 794.390625 407.050781 L 795.558594 406.710938 C 794.378906 406.070313 793.691406 406.941406 793.429688 408.089844 C 790.988281 409.539063 788.488281 410.890625 786.03125 412.300781 C 784.960938 412.800781 783.929688 413.308594 782.878906 413.820313 C 780.910156 414.859375 778.898438 415.800781 776.871094 416.679688 C 770.988281 419.128906 765.011719 421.421875 758.800781 422.871094 L 758.230469 423.199219 C 743.109375 426.449219 726.941406 427.640625 712.011719 422.859375 C 711.46875 422.710938 710.410156 422.421875 709.878906 422.269531 C 707.539063 421.25 705.199219 420.25 702.871094 419.238281 C 685.441406 410.328125 671.511719 395.078125 663.75 377.148438 C 658.769531 365.140625 657.441406 352 657.308594 339.109375 C 656.660156 339.539063 656.011719 339.96875 655.371094 340.410156 C 611.21875 340.601563 567.078125 340.441406 522.941406 340.488281 C 516.960938 340.621094 510.960938 340.171875 505.011719 340.851563 C 505.328125 340.988281 505.96875 341.269531 506.289063 341.410156 C 506.460938 355.5 516.039063 368.160156 528.050781 374.839844 C 528.988281 375.308594 529.929688 375.789063 530.878906 376.28125 C 535.328125 378.261719 540.089844 379.398438 544.878906 380.191406 C 555.140625 381.019531 565.601563 379.089844 574.96875 374.859375 C 585.921875 369.960938 595.300781 362.089844 603.300781 353.261719 C 605.191406 350.960938 608.378906 351.480469 611.011719 351.390625 C 621.140625 351.53125 631.28125 351.191406 641.410156 351.550781 C 645.910156 351.808594 647.820313 357.261719 645.96875 360.941406 C 645.359375 361.960938 644.789063 362.988281 644.238281 364.039063 C 643.980469 364.539063 643.46875 365.550781 643.210938 366.058594 C 633.410156 383.890625 618.519531 398.75 601.160156 409.25 C 598.75 410.519531 596.371094 411.820313 594.019531 413.171875 C 591.101563 414.589844 588.140625 415.929688 585.179688 417.238281 C 564.089844 425.691406 540.101563 428.871094 518.148438 421.851563 C 496.25 415.398438 477.03125 399.128906 468.230469 377.929688 C 467.71875 376.691406 467.21875 375.46875 466.710938 374.238281 C 463.179688 363.558594 461.410156 352.339844 461.148438 341.101563 L 462.5 340.929688 C 462.179688 340.78125 461.539063 340.5 461.21875 340.351563 C 460.75 342.238281 460.480469 344.171875 460.191406 346.089844 C 457.148438 360.019531 454.828125 374.101563 452.160156 388.101563 C 450.480469 396.859375 448.789063 405.609375 447.25 414.398438 C 446.910156 416.21875 446.171875 417.921875 445.398438 419.601563 C 443.640625 420.070313 441.828125 420.46875 440 420.421875 C 428.96875 420.421875 417.941406 420.378906 406.910156 420.441406 C 404.761719 420.519531 402.679688 420.019531 400.621094 419.53125 C 399.699219 417.789063 399.019531 415.859375 399.53125 413.890625 C 406.539063 384.511719 411.839844 354.761719 417.109375 325.03125 C 418.191406 317.289063 419.828125 309.628906 420.859375 301.878906 C 423.808594 285.339844 426.261719 268.71875 429.148438 252.171875 C 431.179688 238.539063 434.058594 225.050781 436.230469 211.449219 C 436.039063 211.941406 435.640625 212.898438 435.449219 213.378906 C 427.828125 221.828125 421.308594 231.21875 414.28125 240.160156 C 403.21875 254.761719 392.199219 269.398438 381.269531 284.109375 C 379.101563 287.039063 376.949219 289.988281 374.710938 292.859375 C 366.058594 304.550781 357.359375 316.199219 348.710938 327.890625 C 344.039063 334.210938 339.390625 340.558594 334.679688 346.851563 C 332.699219 349.539063 330.738281 352.25 328.671875 354.871094 C 327.890625 355.960938 327.101563 357.050781 326.308594 358.148438 C 311.199219 378.480469 296.378906 399.03125 281.148438 419.28125 C 280.660156 419.539063 279.691406 420.058594 279.199219 420.320313 C 265.398438 420.300781 251.609375 420.390625 237.808594 420.371094 C 236.890625 419.828125 235.960938 419.320313 235.03125 418.820313 C 234.039063 416.640625 234.128906 414.230469 234.699219 411.96875 C 238.890625 393.058594 242.378906 374 246.128906 355 C 246.378906 353.28125 246.609375 351.570313 246.808594 349.851563 L 247.210938 349.238281 C 248.988281 338.460938 251.140625 327.75 252.921875 316.980469 C 255.269531 303.609375 257.761719 290.261719 259.859375 276.851563 C 262.828125 261.050781 265.328125 245.171875 268.21875 229.359375 C 268.960938 223.589844 270.980469 217.988281 270.628906 212.121094 C 268.28125 216.140625 264.949219 219.449219 261.960938 222.988281 C 225.03125 265.378906 187.878906 307.570313 150.730469 349.761719 C 148.230469 352.910156 145.238281 355.640625 142.75 358.800781 C 125.53125 378.238281 108.480469 397.828125 91.199219 417.199219 C 90.140625 418.46875 88.808594 419.46875 87.460938 420.421875 C 70.628906 420.398438 53.800781 420.410156 36.96875 420.421875 C 35.167969 420.488281 33.449219 419.960938 31.738281 419.5 C 30.539063 417.351563 29.519531 414.429688 31.25 412.261719 C 44.429688 397.128906 57.582031 381.941406 70.730469 366.761719 C 92.929688 341.261719 115.089844 315.710938 137.230469 290.160156 C 184.171875 236.121094 231.050781 182.039063 277.980469 127.988281 C 281.660156 123.949219 284.941406 119.519531 288.941406 115.78125 M 743.980469 268.121094 C 740.558594 269.800781 737.308594 271.820313 734.351563 274.210938 C 721.351563 284.601563 710.238281 297.921875 704.71875 313.800781 C 703.449219 317.761719 702.621094 321.828125 701.800781 325.898438 C 701.308594 331.570313 701.191406 337.300781 701.871094 342.960938 C 702.21875 344.308594 702.53125 345.679688 702.820313 347.058594 C 703.488281 349.410156 704.261719 351.730469 705.171875 354 C 708.871094 362.878906 715.191406 370.910156 723.828125 375.398438 C 724.960938 375.839844 726.101563 376.308594 727.230469 376.78125 C 738.058594 380.71875 749.921875 380.179688 761.089844 378.191406 C 765.578125 376.960938 769.910156 375.28125 774.109375 373.28125 C 787.949219 365.960938 799.140625 354.359375 807.25 341.078125 C 807.738281 340.011719 808.261719 338.960938 808.78125 337.910156 C 817.011719 322.359375 819.191406 302.949219 811.339844 286.808594 C 806.070313 277.441406 798.109375 269.210938 787.988281 265.199219 C 773.761719 260.078125 757.53125 261.660156 743.980469 268.121094 M 533.550781 278.519531 C 528.5 283.148438 523.378906 288.148438 520.789063 294.621094 C 552.359375 294.609375 583.949219 294.839844 615.53125 294.601563 C 614.78125 291.691406 613.949219 288.789063 612.78125 286.011719 C 609.761719 280.421875 605.859375 275.199219 600.851563 271.238281 C 592.480469 264.539063 581.46875 262.351563 570.980469 262.828125 C 557.238281 263.859375 544.109375 269.78125 533.550781 278.519531 M 894.679688 160.480469 C 895.96875 158.671875 897.769531 157.390625 899.871094 156.648438 C 912.328125 156.691406 924.789063 156.738281 937.238281 156.640625 C 940.328125 157.679688 943.019531 160.609375 942.300781 164.078125 C 939.78125 177.71875 937.261719 191.359375 934.671875 204.988281 C 934.441406 207.140625 933.039063 208.839844 931.769531 210.488281 C 929.898438 211.128906 927.949219 211.53125 925.980469 211.449219 C 914.621094 211.351563 903.261719 211.53125 891.898438 211.339844 C 890.871094 210.910156 889.839844 210.488281 888.820313 210.089844 C 887.851563 208.210938 886.648438 206.191406 886.921875 204 C 888.019531 196.28125 889.941406 188.691406 890.820313 180.929688 L 891.238281 180.339844 C 892.179688 173.691406 893.609375 167.109375 894.679688 160.480469 M 2365.941406 155.738281 C 2373.121094 154.660156 2381.148438 156.269531 2386.140625 161.898438 C 2392.921875 168.230469 2394.25 178.910156 2390.359375 187.140625 C 2385.988281 195.929688 2375.378906 201.089844 2365.820313 198.578125 C 2359.070313 197.269531 2353.609375 192.210938 2350.589844 186.199219 C 2348.738281 180.988281 2348.148438 175.289063 2350.191406 170.03125 C 2350.320313 169.519531 2350.601563 168.488281 2350.730469 167.980469 C 2352.800781 164.371094 2355.429688 161.089844 2358.859375 158.679688 C 2361.171875 157.621094 2363.539063 156.660156 2365.941406 155.738281 M 2361.851563 161.679688 C 2358.160156 164.140625 2355.261719 167.621094 2353.671875 171.761719 C 2353.148438 175.371094 2352.820313 179.101563 2353.730469 182.691406 C 2355.210938 187.28125 2358.511719 191.160156 2362.769531 193.429688 C 2366.269531 194.769531 2370.089844 195.898438 2373.871094 194.921875 C 2380.539063 193.75 2386.261719 188.421875 2387.878906 181.839844 C 2390.101563 174.03125 2386.109375 164.910156 2378.738281 161.410156 C 2373.511719 158.5 2367.078125 159.148438 2361.851563 161.679688 M 2135.398438 158.589844 C 2137.101563 157.71875 2138.808594 156.558594 2140.851563 156.679688 C 2152.628906 156.640625 2164.410156 156.75 2176.199219 156.691406 C 2179.371094 157.601563 2182.261719 160.46875 2181.429688 164.03125 C 2175.371094 197.019531 2169.070313 229.980469 2163.230469 263.011719 C 2162.53125 266.269531 2161.921875 269.589844 2162.46875 272.929688 C 2163 272.03125 2163.558594 271.140625 2164.140625 270.25 C 2179.46875 253.339844 2193.558594 235.351563 2207.941406 217.640625 C 2221.21875 215.898438 2234.628906 217.449219 2247.96875 216.941406 C 2250.761719 216.820313 2253.949219 216.671875 2256.230469 218.648438 C 2264.671875 216.050781 2273.609375 217.710938 2282.308594 217.230469 C 2285.738281 198.859375 2289.109375 180.488281 2292.539063 162.128906 C 2292.910156 159.03125 2295.828125 156.648438 2298.941406 156.789063 C 2311.03125 156.648438 2323.140625 156.890625 2335.238281 156.679688 C 2337.320313 157.578125 2339.691406 158.808594 2340.351563 161.199219 C 2340.789063 164.539063 2339.539063 167.800781 2339.140625 171.078125 C 2336.089844 186.238281 2333.390625 201.46875 2330.460938 216.648438 C 2341.628906 216.898438 2352.808594 216.691406 2363.988281 216.761719 C 2365.761719 216.769531 2367.53125 217.148438 2369.320313 217.449219 C 2372.160156 219.410156 2372.941406 222.871094 2372.230469 226.121094 C 2369.980469 236.429688 2368.808594 246.960938 2366.511719 257.269531 C 2364.851563 259.761719 2361.890625 260.738281 2359.019531 260.429688 C 2346.871094 260.371094 2334.730469 260.421875 2322.589844 260.519531 C 2317.738281 286.691406 2312.890625 312.871094 2308.121094 339.058594 C 2306.070313 349.75 2304.058594 360.449219 2302.171875 371.179688 C 2299.289063 385.78125 2296.769531 400.449219 2293.980469 415.070313 C 2293.800781 417.851563 2291.480469 419.390625 2289.21875 420.429688 C 2276.820313 420.410156 2264.421875 420.390625 2252.019531 420.429688 C 2249.929688 420.390625 2247.738281 420.710938 2245.921875 419.550781 C 2244.941406 419.75 2243.960938 419.988281 2243.050781 420.28125 C 2231.039063 420.601563 2219.019531 420.300781 2207.011719 420.429688 C 2204.191406 420.539063 2200.738281 420.261719 2199.300781 417.449219 C 2191.148438 403.988281 2183.039063 390.511719 2174.78125 377.121094 C 2173.210938 374.300781 2171.53125 371.53125 2169.558594 368.980469 C 2169.539063 368.738281 2169.488281 368.269531 2169.46875 368.03125 C 2165.011719 361.621094 2161.238281 354.75 2156.96875 348.210938 C 2154.570313 344.171875 2151.570313 340.46875 2149.761719 336.109375 C 2147.011719 350.070313 2144.460938 364.078125 2142.140625 378.109375 L 2141.761719 378.71875 C 2140.191406 388.660156 2138.050781 398.488281 2136.191406 408.371094 C 2135.371094 411.988281 2135.109375 415.890625 2132.941406 419.019531 C 2129.570313 420.910156 2125.648438 420.359375 2121.96875 420.421875 C 2115.660156 420.398438 2109.351563 420.410156 2103.050781 420.410156 C 2098.859375 420.351563 2094.589844 420.828125 2090.550781 419.550781 L 2090.488281 418.761719 C 2090.109375 418.558594 2089.359375 418.160156 2088.980469 417.960938 C 2087.578125 414.921875 2088.351563 411.511719 2088.800781 408.351563 C 2089.628906 403.960938 2090.28125 399.53125 2091.148438 395.148438 C 2098.539063 349.789063 2106.429688 304.5 2113.828125 259.140625 C 2107.699219 258.710938 2101.75 260.191406 2096.03125 262.191406 C 2085.371094 266.171875 2076.261719 273.921875 2070.761719 283.898438 C 2067.710938 289.898438 2065.160156 296.210938 2063.980469 302.859375 C 2061.871094 312.871094 2060.050781 322.929688 2057.851563 332.921875 C 2057.578125 334.308594 2057.339844 335.710938 2057.128906 337.109375 C 2051.648438 363.371094 2046.480469 389.691406 2041.101563 415.96875 C 2040.761719 416.710938 2040.460938 417.449219 2040.191406 418.210938 C 2038.519531 419.210938 2036.859375 420.511719 2034.820313 420.398438 C 2024.160156 420.5 2013.5 420.289063 2002.851563 420.320313 C 2001.480469 419.691406 2000.148438 419.078125 1999.078125 418.058594 C 1998.640625 416.738281 1998.191406 415.421875 1997.78125 414.109375 C 2004.269531 381.191406 2009.890625 348.070313 2016.121094 315.089844 C 2020.769531 289.449219 2025.460938 263.820313 2030.160156 238.191406 C 2031.691406 231.640625 2031.839844 224.710938 2034.53125 218.46875 C 2037.769531 216.800781 2041.480469 217.300781 2045 217.230469 C 2054.769531 217.308594 2064.539063 217.101563 2074.320313 217.371094 C 2075.390625 218.410156 2076.429688 219.519531 2077.441406 220.671875 C 2077.398438 223.339844 2077.289063 226.011719 2077.339844 228.691406 C 2078.421875 226.988281 2080.308594 226.039063 2082.089844 225.191406 C 2083.390625 224.511719 2084.710938 223.820313 2086.058594 223.140625 C 2096.699219 218.261719 2108.238281 214.628906 2120.050781 214.671875 C 2121.378906 215.179688 2122.75 215.648438 2124.148438 216.089844 C 2125.46875 206.960938 2127.480469 197.960938 2128.808594 188.839844 L 2129.21875 188.230469 C 2130.371094 180.441406 2132.171875 172.761719 2133.601563 165.019531 C 2133.960938 163.011719 2134.289063 160.949219 2135.351563 159.171875 L 2135.398438 158.589844 M 2253.089844 232.011719 C 2231.980469 257.019531 2211.441406 282.511719 2190.441406 307.609375 C 2190.441406 308.03125 2190.429688 308.859375 2190.429688 309.28125 C 2192.601563 312.558594 2194.601563 315.960938 2196.671875 319.320313 C 2205.378906 333.601563 2214.011719 347.921875 2222.78125 362.160156 C 2231.21875 375.71875 2239.199219 389.589844 2247.980469 402.929688 C 2256.011719 355.328125 2265.480469 307.988281 2274.058594 260.488281 C 2270.699219 260.398438 2267.339844 260.390625 2264.011719 260.410156 C 2259.71875 260.308594 2254.949219 261.261719 2251.441406 258.191406 C 2249.910156 248.589844 2254.148438 239.410156 2254.570313 229.921875 C 2254.050781 230.609375 2253.558594 231.308594 2253.089844 232.011719 M 2361.46875 165.5 C 2367.058594 165.761719 2372.839844 164.761719 2378.300781 166.480469 C 2379.671875 167.671875 2380.648438 169.199219 2381.5 170.808594 C 2381.769531 174.121094 2380.550781 177.609375 2377.28125 178.96875 C 2378.558594 182.121094 2379.429688 185.570313 2381.691406 188.210938 C 2381.28125 188.46875 2380.449219 189.011719 2380.03125 189.269531 C 2378.03125 189.410156 2375.71875 189.28125 2374.988281 187.050781 C 2374.148438 184.550781 2373.078125 182.128906 2372.171875 179.679688 C 2370.261719 179.691406 2368.351563 179.71875 2366.519531 179.761719 C 2366.5 182.929688 2366.511719 186.101563 2366.460938 189.269531 C 2364.78125 189.261719 2363.121094 189.269531 2361.488281 189.28125 C 2361.320313 181.351563 2361.410156 173.429688 2361.46875 165.5 M 2366.539063 169.519531 C 2366.5 171.578125 2366.480469 173.628906 2366.5 175.691406 C 2369.449219 175.71875 2372.429688 175.601563 2375.398438 175.21875 C 2375.539063 173.671875 2375.671875 172.121094 2375.808594 170.570313 C 2372.949219 168.988281 2369.628906 169.589844 2366.539063 169.519531 "/>
</g>
</svg>
